<svg height="1163.126" viewBox="0 0 1285.563 1163.126" width="1285.563" xmlns="http://www.w3.org/2000/svg" xmlns:xlink="http://www.w3.org/1999/xlink"><clipPath id="a"><path d="m0 0h1285.563v1163.126h-1285.563z"/></clipPath><g clip-path="url(#a)"><path d="m1163.131 550.955v61.216h-61.217v244.869h61.217 61.216v-306.085z" fill="#744e26"/><path d="m550.955 795.824h-122.437v61.216h-61.216v122.437h122.437v-61.216h61.216z" fill="#744e26"/><path d="m918.261 612.171h-61.216v-61.216h61.216zm61.217 0h-61.217v61.216h61.217zm122.432 61.216v183.653h-122.432-122.437v61.217h-122.433-183.653v-183.649h122.437v-122.437h61.216v61.216h183.653v61.221h61.217v-61.221zm-306.086 61.221h-61.216v61.216h61.216zm-183.648-122.437h61.216v-61.216h-61.216z" fill="#4ec2c8"/><path d="m918.261 122.432v-61.216h-428.518v61.216h-61.221v367.302h122.437v-61.216h-61.216v-122.433h61.216v122.433h61.217v-122.433h122.432v-122.436h183.653v61.22h61.217v-122.437z" fill="#744e26"/><path d="m979.478 122.436h61.216v61.217h-61.216z" fill="#2a2a2a"/><path d="m612.171 612.171h61.217v122.437h-183.649v-61.217h-122.437v-122.436h244.869zm367.307 61.22h-61.217v61.217h61.217zm-244.874 122.433h61.216v-61.216h-61.216zm244.874-612.171v61.216h61.216v122.433h-61.216v183.653h-61.221v61.216h122.437v-61.216h61.216v-61.217h61.216v-61.22-122.433-122.432zm-122.437 367.302h-183.653v61.216h61.216v61.22h183.653v-61.22h-61.216z" fill="#fbd800"/><path d="m1224.347 489.734v-489.734h-61.216-734.609v61.216h-61.216v428.518h-183.653v61.221h-61.22v183.649h244.873v61.22h-122.437v61.216h-61.216v61.217h61.216v61.22h61.217v61.216h122.436v61.217h61.217v-61.217h61.216v-61.216h428.523v-61.22h306.085v-428.523zm0 367.306h-367.306v61.217h-367.302v61.22h-122.433v-122.437h61.216v-61.216h122.433v-61.22h-61.216v-61.217h-306.086v-61.216h61.216v-61.216h122.437 183.649v-61.221h-122.433v-183.649-183.653h61.217v-61.216h428.522v61.216h61.217v-61.216h183.653v428.518h-61.221v61.221h-61.216v61.216h-61.216v61.216h122.432v-61.216h61.221v-61.216h61.216z" fill="#2a2a2a"/><path d="m857.041 306.085h-61.217v-61.216h61.217zm-673.388 612.172h-61.216v61.216h61.216zm183.653 244.869h61.216v-61.216h-61.216zm-183.653-61.216h61.216v-61.217h-61.216zm-183.653 0h61.216v-61.217h-61.216zm979.478-673.392v-61.216h-183.654v61.216h-61.216v122.437h122.433 122.437v-61.221h-122.437v-61.216z" fill="#2a2a2a"/><g fill="#fff"><path d="m795.824 244.869h122.436v-61.216h-122.436-61.216v122.432h61.216zm61.217 61.216h-61.217v61.217h244.872v-61.217h-.002v-61.216h-183.653zm-306.086 122.433h183.653v122.437h-183.653zm-61.216-122.433h61.216v122.433h-61.216zm122.437 0h183.648v122.433h-183.648zm244.865 122.433h122.437v61.216h-122.437z" fill-rule="evenodd"/><path d="m244.869 673.391h122.433v-122.436h-122.433v61.218h-61.216v61.218z"/><path d="m1163.126 122.436h.005v-61.22h-183.653v61.22h61.218v61.217h122.43z"/></g></g></svg>