<svg clip-rule="evenodd" fill-rule="evenodd" stroke-linejoin="round" stroke-miterlimit="2" viewBox="0 0 153 153" xmlns="http://www.w3.org/2000/svg"><g fill="#fe5757" fill-rule="nonzero"><g transform="translate(-110.824 -105.027)"><path d="m185.391 129.66v-11.93c0-1.003.816-1.82 1.828-1.82h.215c1.015 0 1.832.817 1.832 1.82v11.93c0 1.008-.817 1.832-1.832 1.832h-.215c-1.012 0-1.828-.824-1.828-1.832"/><path d="m190.391 149.535-6.129-.008.008-6.621h6.121zm3.566 1.934v-10.489c0-1.062-.793-1.925-1.785-1.925h-9.574c-.032-.008-.071-.008-.11-.008-.277 0-.547.07-.785.191-.594.317-1.008.973-1.008 1.742 0 .063 0 .122.008.184l-.008 10.289c-.007 1.07.793 1.926 1.778 1.934l9.699.008c.984 0 1.785-.864 1.785-1.926"/><path d="m185.391 174.699v-11.922c0-1.004.816-1.828 1.828-1.828h.215c1.015 0 1.832.824 1.832 1.828v11.922c0 1.016-.817 1.832-1.832 1.832h-.215c-1.012 0-1.828-.816-1.828-1.832"/><path d="m185.391 219.746v-11.922c0-1.015.816-1.832 1.828-1.832h.215c1.015 0 1.832.817 1.832 1.832v11.922c0 1.016-.817 1.832-1.832 1.832h-.215c-1.012 0-1.828-.816-1.828-1.832"/><path d="m170.734 126.395-6.136-.008.007-6.617h6.129zm3.567 1.925v-10.484c0-1.063-.801-1.926-1.785-1.926h-9.696c-.277 0-.547.063-.773.188-.606.312-1.016.976-1.016 1.738 0 .062 0 .125.008.184l-.008 10.293c0 1.062.793 1.929 1.782 1.929l9.695.008c.992 0 1.793-.867 1.793-1.93"/><path d="m170.734 217.719h-6.136l.007-6.629h6.129zm3.567 1.933v-10.488c0-1.062-.801-1.926-1.785-1.926h-9.575c-.039 0-.078-.008-.121-.008-.277 0-.547.071-.773.2-.606.308-1.016.965-1.016 1.734 0 .063 0 .117.008.184l-.008 10.289c0 1.07.793 1.933 1.782 1.933l9.695.008c.992 0 1.793-.863 1.793-1.926"/><path d="m170.734 172.051h-6.136l.007-6.617h6.129zm3.567 1.937v-10.488c0-1.062-.801-1.926-1.785-1.926h-9.575c-.039 0-.078-.008-.121-.008-.277 0-.547.071-.773.2-.606.308-1.016.972-1.016 1.734 0 .063 0 .117.008.184l-.008 10.296c0 1.059.793 1.926 1.782 1.926l9.695.008c.992 0 1.793-.867 1.793-1.926"/><path d="m165.723 152.18v-11.922c0-1.012.824-1.828 1.832-1.828h.222c1.004 0 1.828.816 1.828 1.828v11.922c0 1.008-.824 1.832-1.828 1.832h-.222c-1.008 0-1.832-.824-1.832-1.832"/><path d="m146.059 174.699v-11.922c0-1.004.824-1.828 1.828-1.828h.222c1.008 0 1.832.824 1.832 1.828v11.922c0 1.016-.824 1.832-1.832 1.832h-.222c-1.004 0-1.828-.816-1.828-1.832"/><path d="m146.059 219.746v-11.922c0-1.015.824-1.832 1.828-1.832h.222c1.008 0 1.832.817 1.832 1.832v11.922c0 1.016-.824 1.832-1.832 1.832h-.222c-1.004 0-1.828-.816-1.828-1.832"/><path d="m131.402 217.719h-6.129l.008-6.629h6.121zm3.567 1.933v-10.488c0-1.062-.793-1.926-1.785-1.926h-9.575c-.031 0-.07-.008-.109-.008-.277 0-.547.071-.785.2-.594.308-1.008.965-1.008 1.734 0 .063 0 .117.008.184l-.008 10.289c-.008 1.07.793 1.933 1.777 1.933l9.7.008c.984 0 1.785-.863 1.785-1.926"/><path d="m131.402 172.051h-6.129l.008-6.617h6.121zm3.567 1.937v-10.488c0-1.062-.793-1.926-1.785-1.926h-9.575c-.031 0-.07-.008-.109-.008-.277 0-.547.071-.785.2-.594.308-1.008.972-1.008 1.734 0 .063 0 .117.008.184l-.008 10.296c-.008 1.059.793 1.926 1.777 1.926l9.7.008c.984 0 1.785-.867 1.785-1.926"/><path d="m190.391 194.578-6.129-.008.008-6.617h6.121zm3.566 1.926v-10.477c0-1.07-.793-1.933-1.785-1.933h-9.684c-.277 0-.547.07-.785.187-.594.321-1.008.977-1.008 1.746 0 .055 0 .118.008.176l-.008 10.293c-.007 1.063.793 1.93 1.778 1.93l9.699.008c.984.007 1.785-.86 1.785-1.93"/><path d="m165.723 197.227v-11.93c0-1.008.824-1.824 1.832-1.824h.222c1.004 0 1.828.816 1.828 1.824v11.93c0 1.007-.824 1.832-1.828 1.832h-.222c-1.008 0-1.832-.825-1.832-1.832"/><path d="m151.066 194.578-6.125-.008v-6.617h6.125zm3.567 1.926v-10.477c0-1.07-.801-1.933-1.781-1.933h-9.688c-.285 0-.547.07-.785.187-.602.321-1.016.977-1.016 1.746 0 .055.008.118.008.176l-.008 10.293c0 1.063.801 1.93 1.785 1.93l9.704.008c.98.007 1.781-.86 1.781-1.93"/><path d="m126.398 197.227v-11.93c0-1.008.817-1.824 1.832-1.824h.215c1.016 0 1.832.816 1.832 1.824v11.93c0 1.007-.816 1.832-1.832 1.832h-.215c-1.015 0-1.832-.825-1.832-1.832"/><path d="m190.391 242.668-6.129-.008.008-6.617h6.121zm3.566 1.926v-10.485c0-1.062-.793-1.925-1.785-1.925h-9.684c-.277 0-.547.062-.785.187-.594.313-1.008.977-1.008 1.738 0 .063 0 .125.008.184l-.008 10.293c-.007 1.062.793 1.93 1.778 1.93l9.699.007c.984 0 1.785-.867 1.785-1.929"/><path d="m165.723 245.316v-11.929c0-1.004.824-1.832 1.832-1.832h.222c1.004 0 1.828.828 1.828 1.832v11.929c0 1.008-.824 1.825-1.828 1.825h-.222c-1.008 0-1.832-.817-1.832-1.825"/><path d="m151.066 242.668-6.125-.008v-6.617h6.125zm3.567 1.926v-10.485c0-1.062-.801-1.925-1.781-1.925h-9.688c-.285 0-.547.062-.785.187-.602.313-1.016.977-1.016 1.738 0 .063.008.125.008.184l-.008 10.293c0 1.062.801 1.93 1.785 1.93l9.704.007c.98 0 1.781-.867 1.781-1.929"/><path d="m126.398 245.316v-11.929c0-1.004.817-1.832 1.832-1.832h.215c1.016 0 1.832.828 1.832 1.832v11.929c0 1.008-.816 1.825-1.832 1.825h-.215c-1.015 0-1.832-.817-1.832-1.825"/><path d="m249.371 126.395-6.129-.008.012-6.617h6.117zm3.567 1.925v-10.484c0-1.063-.793-1.926-1.782-1.926h-9.687c-.278 0-.547.063-.785.188-.594.312-1.008.976-1.008 1.738 0 .062 0 .125.008.184l-.008 10.293c-.008 1.062.793 1.929 1.777 1.929l9.703.008c.981 0 1.782-.867 1.782-1.93"/><path d="m249.371 217.719h-6.129l.012-6.629h6.117zm3.567 1.933v-10.488c0-1.062-.793-1.926-1.782-1.926h-9.578c-.039 0-.07-.008-.109-.008-.278 0-.547.071-.785.2-.594.308-1.008.965-1.008 1.734 0 .063 0 .117.008.184l-.008 10.289c-.008 1.07.793 1.933 1.777 1.933l9.703.008c.981 0 1.782-.863 1.782-1.926"/><path d="m249.371 172.051h-6.129l.012-6.617h6.117zm3.567 1.937v-10.488c0-1.062-.793-1.926-1.782-1.926h-9.578c-.039 0-.07-.008-.109-.008-.278 0-.547.071-.785.2-.594.308-1.008.972-1.008 1.734 0 .063 0 .117.008.184l-.008 10.296c-.008 1.059.793 1.926 1.777 1.926l9.703.008c.981 0 1.782-.867 1.782-1.926"/><path d="m244.371 152.18v-11.922c0-1.012.817-1.828 1.828-1.828h.215c1.016 0 1.832.816 1.832 1.828v11.922c0 1.008-.816 1.832-1.832 1.832h-.215c-1.011 0-1.828-.824-1.828-1.832"/><path d="m224.703 129.66v-11.93c0-1.003.824-1.82 1.832-1.82h.223c1.004 0 1.832.817 1.832 1.82v11.93c0 1.008-.828 1.832-1.832 1.832h-.223c-1.008 0-1.832-.824-1.832-1.832"/><path d="m229.715 149.535-6.137-.008.008-6.621h6.129zm3.566 1.934v-10.489c0-1.062-.801-1.925-1.785-1.925h-9.574c-.039-.008-.078-.008-.117-.008-.278 0-.547.07-.778.191-.605.317-1.015.973-1.015 1.742 0 .063 0 .122.008.184l-.008 10.289c0 1.07.801 1.926 1.785 1.934l9.691.008c.992 0 1.793-.864 1.793-1.926"/><path d="m224.703 174.699v-11.922c0-1.004.824-1.828 1.832-1.828h.223c1.004 0 1.832.824 1.832 1.828v11.922c0 1.016-.828 1.832-1.832 1.832h-.223c-1.008 0-1.832-.816-1.832-1.832"/><path d="m224.703 219.746v-11.922c0-1.015.824-1.832 1.832-1.832h.223c1.004 0 1.832.817 1.832 1.832v11.922c0 1.016-.828 1.832-1.832 1.832h-.223c-1.008 0-1.832-.816-1.832-1.832"/><path d="m210.047 126.395-6.125-.008v-6.617h6.125zm3.566 1.925v-10.484c0-1.063-.8-1.926-1.781-1.926h-9.687c-.286 0-.547.063-.786.188-.601.312-1.011.976-1.011 1.738 0 .062.007.125.007.184l-.007 10.293c0 1.062.8 1.929 1.781 1.929l9.703.008c.981 0 1.781-.867 1.781-1.93"/><path d="m210.047 217.719h-6.125v-6.629h6.125zm3.566 1.933v-10.488c0-1.062-.8-1.926-1.781-1.926h-9.574c-.043 0-.082-.008-.113-.008-.286 0-.547.071-.786.2-.601.308-1.011.965-1.011 1.734 0 .063.007.117.007.184l-.007 10.289c0 1.07.8 1.933 1.781 1.933l9.703.008c.981 0 1.781-.863 1.781-1.926"/><path d="m210.047 172.051h-6.125v-6.617h6.125zm3.566 1.937v-10.488c0-1.062-.8-1.926-1.781-1.926h-9.574c-.043 0-.082-.008-.113-.008-.286 0-.547.071-.786.2-.601.308-1.011.972-1.011 1.734 0 .063.007.117.007.184l-.007 10.296c0 1.059.8 1.926 1.781 1.926l9.703.008c.981 0 1.781-.867 1.781-1.926"/><path d="m205.039 152.18v-11.922c0-1.012.824-1.828 1.832-1.828h.219c1.008 0 1.832.816 1.832 1.828v11.922c0 1.008-.824 1.832-1.832 1.832h-.219c-1.008 0-1.832-.824-1.832-1.832"/><path d="m244.371 197.227v-11.93c0-1.008.817-1.824 1.828-1.824h.215c1.016 0 1.832.816 1.832 1.824v11.93c0 1.007-.816 1.832-1.832 1.832h-.215c-1.011 0-1.828-.825-1.828-1.832"/><path d="m229.715 194.578-6.137-.008.008-6.617h6.129zm3.566 1.926v-10.477c0-1.07-.801-1.933-1.785-1.933h-9.691c-.278 0-.547.07-.778.187-.605.321-1.015.977-1.015 1.746 0 .055 0 .118.008.176l-.008 10.293c0 1.063.801 1.93 1.785 1.93l9.691.008c.992.007 1.793-.86 1.793-1.93"/><path d="m205.039 197.227v-11.93c0-1.008.824-1.824 1.832-1.824h.219c1.008 0 1.832.816 1.832 1.824v11.93c0 1.007-.824 1.832-1.832 1.832h-.219c-1.008 0-1.832-.825-1.832-1.832"/><path d="m244.371 245.316v-11.929c0-1.004.817-1.832 1.828-1.832h.215c1.016 0 1.832.828 1.832 1.832v11.929c0 1.008-.816 1.825-1.832 1.825h-.215c-1.011 0-1.828-.817-1.828-1.825"/><path d="m229.715 242.668-6.137-.008.008-6.617h6.129zm3.566 1.926v-10.485c0-1.062-.801-1.925-1.785-1.925h-9.691c-.278 0-.547.062-.778.187-.605.313-1.015.977-1.015 1.738 0 .063 0 .125.008.184l-.008 10.293c0 1.062.801 1.93 1.785 1.93l9.691.007c.992 0 1.793-.867 1.793-1.929"/><path d="m205.039 245.316v-11.929c0-1.004.824-1.832 1.832-1.832h.219c1.008 0 1.832.828 1.832 1.832v11.929c0 1.008-.824 1.825-1.832 1.825h-.219c-1.008 0-1.832-.817-1.832-1.825"/><path d="m114.797 254.051h145.055v-145.055h-145.055zm149.023 3.972h-152.996v-152.996h152.996z"/></g><path d="m264.082 278.539-1.676-1.039c-.015-.164-.031-.328-.047-.488l1.446-1.344c.144-.137.211-.34.172-.535-.039-.199-.176-.36-.364-.43l-1.847-.687c-.047-.161-.094-.317-.145-.477l1.152-1.598c.118-.164.141-.375.063-.558-.074-.184-.242-.317-.438-.348l-1.945-.316c-.078-.149-.156-.293-.234-.438l.816-1.797c.086-.179.067-.39-.043-.558-.113-.168-.301-.266-.5-.258l-1.976.07c-.102-.129-.207-.254-.313-.379l.457-1.921c.043-.196-.012-.403-.156-.543-.141-.141-.344-.2-.543-.153l-1.922.453c-.125-.105-.25-.211-.379-.312l.07-1.977c.008-.199-.089-.386-.257-.5-.164-.109-.379-.129-.559-.043l-1.793.817c-.144-.078-.289-.157-.437-.235l-.317-1.945c-.031-.195-.164-.363-.347-.437-.188-.079-.399-.055-.559.062l-1.598 1.152c-.156-.05-.316-.097-.472-.144l-.688-1.848c-.07-.187-.234-.324-.43-.363-.195-.039-.398.027-.535.172l-1.343 1.445c-.165-.019-.329-.035-.489-.047l-1.039-1.683c-.105-.168-.293-.274-.496-.274-.199 0-.383.106-.488.274l-1.039 1.683c-.164.012-.324.028-.489.047l-1.343-1.445c-.137-.145-.34-.211-.535-.172-.2.039-.36.176-.43.363l-.688 1.848c-.16.047-.316.094-.472.144l-1.598-1.152c-.164-.117-.375-.141-.559-.062-.183.074-.316.242-.347.437l-.317 1.945c-.148.078-.293.157-.437.235l-1.793-.817c-.18-.086-.391-.066-.559.043-.168.114-.265.301-.257.5l.07 1.977c-.129.101-.254.207-.379.312l-1.922-.453c-.195-.047-.402.012-.543.153-.144.14-.199.347-.156.543l.453 1.921c-.105.125-.211.25-.313.379l-1.976-.07c-.199-.004-.387.09-.5.258-.109.164-.129.379-.043.558l.816 1.797c-.078.145-.16.289-.234.438l-1.945.316c-.196.031-.364.164-.438.348-.078.187-.055.398.063.558l1.152 1.598c-.051.156-.102.316-.145.477l-1.847.687c-.188.07-.324.231-.363.43-.04.195.027.394.171.535l1.446 1.344c-.02.16-.035.324-.047.488l-1.68 1.039c-.168.106-.273.293-.273.492 0 .203.105.387.273.489l1.68 1.043c.012.16.027.324.047.488l-1.446 1.344c-.144.136-.211.339-.171.535.039.195.175.359.363.429l1.847.688c.043.156.094.316.145.476l-1.152 1.598c-.118.16-.141.371-.063.555.074.187.242.32.442.351l1.945.317c.074.148.152.293.234.433l-.816 1.793c-.086.184-.067.395.043.563.113.168.301.265.5.258l1.972-.071c.102.129.208.254.313.379l-.453 1.922c-.043.195.015.399.156.539.141.141.348.199.543.153l1.922-.45c.125.106.25.207.379.309l-.07 1.976c-.008.2.089.391.257.5.164.114.379.129.563.047l1.789-.82c.144.082.289.16.437.234l.317 1.946c.031.199.164.367.347.445.188.074.399.051.559-.066l1.598-1.149c.156.047.316.098.476.145l.688 1.843c.07.188.234.325.429.364.196.039.399-.024.536-.172l1.343-1.445c.164.019.329.035.489.05l1.039 1.676c.105.172.293.274.492.274.195 0 .383-.102.492-.274l1.039-1.676c.164-.015.324-.031.488-.05l1.344 1.445c.137.148.34.211.535.172.2-.039.36-.176.43-.364l.688-1.843c.16-.047.316-.098.476-.145l1.598 1.149c.164.117.375.14.558.066.184-.078.317-.246.348-.445l.316-1.946c.149-.074.293-.156.438-.234l1.793.82c.18.082.391.067.558-.047.168-.109.266-.3.258-.5l-.07-1.976c.129-.102.258-.203.379-.309l1.922.45c.195.046.402-.012.543-.153.144-.144.199-.347.156-.539l-.453-1.922c.105-.125.211-.25.312-.379l1.977.071c.199.007.387-.09.5-.258.109-.168.129-.379.043-.563l-.817-1.793c.079-.144.157-.289.235-.433l1.945-.317c.195-.031.363-.164.438-.351.078-.184.054-.395-.063-.555l-1.152-1.598c.051-.16.097-.316.144-.476l1.844-.688c.192-.07.328-.234.367-.429.039-.196-.027-.399-.172-.535l-1.445-1.344c.016-.164.031-.328.047-.488l1.676-1.043c.172-.102.273-.29.273-.489 0-.195-.101-.386-.273-.492zm-11.23 13.945c-.645-.136-1.047-.769-.911-1.414.137-.64.77-1.05 1.411-.91.64.137 1.05.77.914 1.41-.141.645-.77 1.051-1.411.914zm-.571-3.859c-.586-.125-1.16.25-1.285.836l-.594 2.781c-1.839.832-3.898 1.297-6.039 1.297-2.199 0-4.277-.484-6.148-1.355l-.598-2.782c-.125-.586-.699-.961-1.285-.832l-2.457.528c-.453-.473-.875-.973-1.266-1.5h11.957c.137 0 .227-.024.227-.149v-4.238c0-.125-.09-.148-.227-.148h-3.496v-2.68h3.782c.343 0 1.843.101 2.32 2.019.152.586.484 2.504.707 3.121.226.688 1.141 2.063 2.113 2.063h5.961c.067 0 .141-.008.215-.02-.41.559-.867 1.09-1.352 1.59l-2.515-.539zm-16.543 3.805c-.64.136-1.273-.274-1.41-.914-.137-.645.27-1.278.914-1.414.641-.137 1.27.269 1.41.914.137.64-.273 1.273-.914 1.414zm-4.547-18.379c.266.597-.003 1.301-.605 1.57-.598.266-1.297-.004-1.566-.605-.266-.598.003-1.301.605-1.571.598-.265 1.297.004 1.566.606zm-1.394 3.301 2.558-1.141c.547-.242.797-.883.551-1.426l-.527-1.195h2.07v9.324h-4.164c-.363-1.277-.558-2.621-.558-4.012 0-.531.031-1.054.086-1.57zm11.234-.907v-2.75h4.926c.258 0 1.801.293 1.801 1.45 0 .957-1.184 1.3-2.16 1.3h-4.582zm17.918 2.477c0 .363-.015.726-.039 1.086h-1.504c-.148 0-.211.097-.211.246v.687c0 1.618-.91 1.973-1.715 2.063-.761.086-1.609-.32-1.71-.789-.45-2.531-1.2-3.07-2.383-4.012 1.468-.93 2.996-2.308 2.996-4.164 0-1.988-1.363-3.242-2.289-3.859-1.309-.86-2.754-1.032-3.141-1.032h-15.515c2.105-2.343 4.968-4.011 8.179-4.621l1.828 1.918c.414.43 1.098.45 1.532.035l2.05-1.957c4.278.797 7.907 3.465 10.008 7.145l-1.402 3.164c-.242.547.008 1.188.551 1.43l2.699 1.199c.047.477.07.961.07 1.449zm-15.511-16.008c.472-.457 1.226-.437 1.675.039.453.473.438 1.223-.039 1.68-.472.453-1.226.433-1.676-.039-.453-.473-.437-1.227.04-1.68zm13.906 11.191c.265-.597.969-.871 1.566-.601.602.266.871.969.606 1.57-.266.602-.969.871-1.567.606-.601-.27-.871-.973-.605-1.575z" transform="matrix(.824932 0 0 .824932 -174.541 -200.678)"/></g></svg>