<svg xmlns="http://www.w3.org/2000/svg" width="100%" height="100%" viewBox="0 0 128 128"
    version="1.1"
    style="fill-rule:evenodd;clip-rule:evenodd;stroke-linejoin:round;stroke-miterlimit:2;">
    <g transform="matrix(0.0208208,0,0,-0.0208208,1.1737e-17,128.008)">
        <path
            d="M2954,6141C2864,6136 2851,6132 2821,6108C2792,6083 2769,6074 2689,6056C2661,6050 2586,5979 2565,5939C2552,5915 2544,5912 2474,5907C2431,5904 2392,5904 2387,5907C2383,5910 2382,5925 2385,5940C2390,5962 2386,5971 2368,5984C2356,5993 2335,6000 2323,6000C2290,6000 2221,5971 2175,5938C2139,5912 2056,5882 1970,5865C1926,5856 1880,5822 1880,5798C1880,5779 1885,5777 1942,5780C1962,5781 1988,5776 2000,5770C2036,5750 2011,5738 1941,5742L1875,5745L1878,5703C1879,5680 1876,5659 1870,5655C1865,5652 1860,5641 1860,5631C1860,5621 1851,5601 1840,5587C1829,5573 1820,5553 1820,5541C1820,5530 1811,5513 1800,5502C1789,5492 1769,5462 1755,5435C1722,5373 1726,5346 1785,5257C1832,5186 1833,5177 1814,5083C1812,5071 1769,5018 1720,4964C1654,4894 1627,4857 1619,4826C1613,4804 1599,4767 1589,4744C1565,4691 1565,4680 1594,4623C1608,4596 1626,4551 1634,4522C1649,4473 1648,4466 1632,4437C1606,4388 1608,4255 1637,4214C1657,4186 1659,4169 1662,4014C1665,3858 1667,3843 1687,3815C1708,3787 1710,3770 1716,3583C1721,3428 1720,3374 1710,3350C1698,3321 1699,3318 1721,3302L1745,3285L1705,3280C1670,3276 1662,3270 1642,3230C1625,3197 1620,3175 1624,3148C1628,3128 1626,3108 1620,3105C1605,3096 1608,3071 1625,3054C1633,3045 1640,3043 1640,3048C1640,3053 1660,3061 1685,3064C1736,3072 1746,3096 1704,3106C1682,3112 1680,3114 1693,3127C1712,3147 1785,3156 1795,3140C1799,3134 1797,3118 1790,3105C1779,3085 1781,3079 1800,3060C1820,3040 1821,3037 1805,3020C1789,3002 1789,3000 1804,2985C1826,2962 1824,2951 1796,2940C1760,2927 1756,2911 1785,2904C1799,2901 1814,2900 1817,2903C1830,2916 1860,2888 1860,2863C1860,2848 1870,2826 1882,2813C1909,2785 1900,2775 1852,2779C1814,2782 1800,2782 1693,2780C1638,2779 1630,2776 1630,2759C1630,2749 1636,2739 1643,2739C1655,2737 1677,2736 1733,2732C1779,2729 1765,2704 1710,2694C1674,2687 1663,2682 1668,2672C1674,2664 1715,2659 1799,2656C1930,2653 1962,2642 1922,2614C1892,2593 1894,2583 1935,2570C1974,2557 1980,2544 1951,2535C1918,2525 1917,2500 1950,2488C2004,2470 1992,2461 1888,2440C1822,2427 1814,2414 1865,2404C1901,2398 1922,2379 1902,2372C1881,2365 1889,2350 1925,2329C1944,2317 1960,2302 1960,2295C1960,2288 1973,2266 1990,2245C2007,2224 2020,2199 2020,2188C2020,2177 2031,2150 2044,2127C2061,2097 2069,2064 2073,2012C2076,1956 2082,1934 2099,1916C2110,1904 2120,1883 2120,1870C2120,1857 2130,1836 2142,1823C2159,1805 2161,1797 2152,1788C2133,1769 2137,1761 2175,1746C2205,1733 2210,1727 2205,1707C2199,1686 2204,1680 2246,1659C2294,1636 2294,1636 2267,1627C2232,1616 2231,1590 2266,1590C2280,1590 2308,1582 2327,1573C2358,1559 2360,1555 2346,1545C2321,1526 2327,1516 2376,1496C2420,1478 2420,1477 2403,1458C2388,1441 2388,1437 2400,1430C2408,1424 2423,1420 2433,1420C2449,1420 2486,1405 2499,1394C2502,1391 2495,1383 2484,1376C2457,1356 2476,1339 2534,1333C2584,1327 2621,1300 2579,1300C2566,1300 2549,1296 2542,1291C2515,1274 2559,1259 2666,1249C2726,1244 2791,1236 2810,1231C2844,1223 2843,1223 2783,1215C2725,1208 2708,1199 2728,1186C2735,1182 3254,1157 3285,1159C3291,1160 3360,1165 3440,1171C3600,1182 3672,1196 3649,1211C3641,1216 3602,1220 3561,1220C3465,1220 3475,1230 3576,1235C3698,1240 3823,1259 3831,1272C3843,1291 3832,1300 3799,1300C3755,1300 3772,1316 3822,1323C3846,1325 3879,1333 3895,1340L3925,1352L3897,1374L3868,1397L3930,1411C4011,1429 4018,1434 4002,1460C3991,1478 3993,1482 4025,1501C4061,1522 4070,1544 4048,1553C4041,1556 4054,1566 4077,1575C4100,1585 4121,1599 4124,1606C4131,1623 4059,1644 4021,1635C4002,1631 3989,1634 3981,1644C3969,1658 3978,1659 4050,1659C4109,1659 4138,1663 4156,1675C4169,1684 4178,1695 4175,1699C4172,1704 4128,1708 4078,1708C4025,1708 3972,1713 3955,1721C3926,1733 3926,1734 3992,1741C4029,1745 4063,1751 4067,1753C4072,1756 4097,1754 4124,1748C4180,1736 4240,1745 4240,1765C4240,1772 4232,1781 4223,1784C4197,1792 4043,1794 3700,1792C3582,1791 3467,1791 3445,1791C3423,1791 3331,1791 3240,1790C3003,1788 2746,1797 2742,1808C2739,1819 2877,1832 2980,1831C3053,1830 3104,1843 3070,1854C3030,1866 2988,1868 2960,1859C2936,1850 2922,1851 2895,1865C2870,1876 2847,1879 2817,1875C2794,1871 2764,1873 2751,1878C2728,1886 2728,1887 2763,1903C2782,1912 2821,1920 2850,1920C2887,1920 2900,1924 2898,1933C2895,1939 2880,1946 2864,1947C2848,1948 2787,1952 2727,1956C2638,1961 2622,1965 2631,1976C2637,1984 2659,1990 2679,1990C2699,1990 2746,1993 2783,1997C2880,2006 2853,2022 2728,2031C2671,2035 2612,2043 2595,2050L2565,2063L2593,2073C2608,2079 2620,2090 2620,2097C2620,2108 2604,2114 2510,2139C2488,2145 2483,2149 2496,2149C2508,2150 2531,2155 2549,2161C2579,2172 2580,2173 2563,2185C2553,2192 2523,2201 2497,2205C2471,2209 2450,2216 2450,2220C2450,2230 2537,2250 2583,2251L2615,2251L2575,2266C2554,2274 2486,2283 2425,2286C2326,2291 2311,2290 2295,2274C2278,2257 2278,2256 2306,2246C2334,2237 2353,2220 2345,2212C2319,2186 2120,2199 2120,2226C2120,2235 2133,2240 2158,2241C2178,2242 2206,2245 2219,2249C2257,2259 2225,2277 2153,2285C2111,2290 2090,2296 2090,2305C2090,2321 2192,2331 2317,2327C2401,2325 2423,2331 2401,2353C2390,2364 2363,2365 2220,2361C2157,2359 2045,2375 2047,2385C2048,2391 2075,2399 2107,2403C2201,2417 2214,2420 2204,2430C2198,2436 2181,2440 2165,2441C2117,2442 2010,2463 2010,2470C2010,2480 2214,2500 2289,2497C2332,2496 2354,2499 2357,2507C2364,2526 2312,2534 2271,2520C2243,2511 2217,2511 2160,2520C2119,2526 2066,2534 2043,2537C1987,2544 1988,2557 2045,2564C2070,2567 2111,2573 2136,2576C2212,2585 2174,2606 2069,2613C2019,2616 1975,2621 1972,2625C1957,2640 1996,2652 2079,2657C2201,2665 2194,2683 2065,2692C2012,2696 1965,2702 1962,2705C1946,2721 1989,2733 2075,2738C2193,2744 2198,2762 2084,2772C1987,2781 1957,2788 1965,2800C1968,2805 1992,2812 2018,2815C2139,2831 2149,2844 2047,2854C1945,2865 1929,2892 2017,2905C2069,2913 2063,2923 1993,2941C1941,2955 1945,2977 2001,2986C2037,2992 2039,2994 2022,3006C2012,3013 1987,3021 1967,3025C1920,3034 1919,3057 1965,3066C2009,3074 2005,3092 1957,3103C1930,3110 1920,3117 1920,3131C1920,3144 1927,3150 1944,3150C1975,3150 1988,3168 1963,3176C1894,3198 1886,3217 1938,3236L1965,3246L1933,3263C1891,3285 1891,3307 1932,3318L1964,3326L1926,3344C1886,3363 1883,3379 1918,3395C1945,3407 1946,3416 1920,3430C1892,3445 1895,3469 1928,3481L1955,3492L1933,3507C1903,3527 1904,3548 1935,3562C1963,3575 1967,3585 1945,3594C1923,3602 1927,3638 1950,3645C1975,3653 1976,3669 1953,3685C1938,3696 1938,3700 1949,3714C1956,3723 1971,3730 1981,3730C2006,3730 2005,3756 1980,3763C1949,3771 1956,3800 1990,3807C2031,3815 2036,3827 2006,3842C1978,3854 1972,3875 1994,3883C2001,3886 2028,3892 2054,3895C2112,3904 2113,3917 2055,3926C1969,3938 1995,3965 2104,3976C2140,3980 2170,3986 2170,3991C2170,3998 2154,4003 2076,4016C2040,4022 2038,4024 2055,4036C2066,4044 2099,4050 2131,4050C2205,4050 2250,4059 2250,4075C2250,4090 2206,4100 2144,4100C2121,4100 2099,4104 2095,4109C2088,4121 2127,4127 2227,4133C2308,4138 2342,4154 2313,4175C2298,4186 2298,4188 2316,4197C2326,4203 2353,4210 2375,4214C2443,4226 2451,4230 2448,4252C2444,4282 2487,4294 2575,4285C2633,4280 2654,4273 2674,4255C2690,4240 2718,4229 2747,4225C2774,4221 2817,4215 2843,4210C2886,4203 2912,4206 2980,4227C3005,4234 2962,4260 2924,4260C2907,4260 2882,4269 2869,4280C2843,4301 2846,4303 2915,4301C2937,4300 2961,4303 2968,4308C2992,4324 2953,4343 2897,4341C2835,4340 2810,4347 2810,4365C2810,4381 2845,4391 2880,4383C2896,4380 2916,4382 2926,4388C2941,4396 2938,4399 2909,4409C2890,4415 2863,4420 2850,4419C2836,4419 2778,4423 2720,4429C2655,4436 2572,4436 2500,4431C2437,4427 2368,4422 2347,4421C2326,4421 2297,4414 2282,4406C2259,4393 2257,4391 2273,4385C2282,4381 2290,4374 2290,4369C2290,4356 2221,4340 2165,4340C2069,4340 2072,4373 2170,4387L2223,4395L2171,4414C2112,4435 2105,4456 2154,4466C2191,4472 2194,4494 2159,4505C2130,4514 2136,4529 2175,4546C2216,4563 2218,4572 2188,4592L2166,4607L2193,4625C2223,4644 2228,4665 2205,4674C2181,4683 2188,4699 2222,4713L2255,4726L2232,4745C2205,4769 2204,4787 2229,4795C2254,4802 2263,4827 2244,4834C2219,4843 2229,4860 2268,4877C2315,4896 2315,4897 2301,4914C2284,4934 2294,4947 2333,4955C2387,4967 2403,4979 2389,4996C2374,5015 2386,5025 2442,5040C2485,5052 2496,5065 2481,5084C2469,5098 2479,5103 2555,5126C2574,5132 2586,5144 2590,5160C2597,5191 2652,5206 2820,5220C2888,5226 2947,5233 2949,5236C2952,5239 2948,5245 2940,5250C2930,5257 2952,5259 3005,5258C3049,5257 3070,5255 3053,5253C2996,5246 3017,5233 3098,5226C3140,5222 3199,5217 3229,5214C3259,5210 3310,5214 3343,5221C3394,5231 3400,5235 3386,5245C3371,5257 3371,5258 3386,5264C3406,5272 3464,5272 3484,5264C3493,5261 3500,5252 3500,5244C3500,5228 3551,5214 3642,5205C3713,5198 3748,5177 3710,5165C3677,5155 3703,5133 3758,5125C3831,5115 3890,5098 3890,5089C3890,5084 3878,5080 3864,5080C3822,5080 3842,5056 3891,5047C4008,5026 4044,5017 4030,5012C3971,4993 3965,4989 3980,4980C3988,4976 4024,4967 4058,4960C4093,4954 4134,4944 4148,4938L4175,4928L4151,4919C4132,4911 4130,4907 4140,4895C4147,4887 4162,4880 4174,4880C4186,4880 4205,4873 4216,4865C4234,4851 4234,4849 4218,4839C4192,4824 4196,4801 4224,4794C4253,4787 4266,4762 4245,4754C4229,4748 4224,4720 4238,4720C4243,4720 4254,4714 4264,4707C4280,4695 4281,4691 4269,4671C4254,4647 4254,4648 4307,4613C4324,4601 4324,4600 4308,4590C4286,4576 4295,4553 4326,4546C4349,4540 4361,4510 4340,4510C4323,4510 4329,4475 4349,4458C4362,4447 4367,4434 4363,4420C4360,4408 4364,4392 4375,4380C4385,4369 4389,4354 4385,4341C4382,4329 4386,4311 4395,4297C4403,4284 4408,4266 4404,4257C4401,4249 4406,4230 4415,4216C4424,4202 4429,4186 4425,4180C4422,4174 4428,4154 4440,4135C4452,4116 4459,4097 4456,4092C4453,4087 4458,4071 4466,4055C4474,4039 4479,4022 4477,4016C4475,4010 4479,3989 4486,3970C4493,3951 4499,3928 4499,3920C4502,3878 4512,3823 4522,3803C4528,3792 4530,3776 4528,3768C4525,3761 4527,3744 4532,3730C4537,3716 4544,3687 4546,3665C4552,3612 4557,3577 4569,3505C4575,3472 4577,3437 4574,3428C4571,3418 4574,3401 4580,3390C4586,3379 4587,3364 4583,3357C4576,3346 4569,3242 4569,3150C4569,3131 4564,3110 4559,3103C4544,3086 4557,3070 4585,3070C4617,3070 4627,3090 4604,3107C4586,3121 4587,3122 4620,3150C4647,3173 4652,3181 4643,3191C4633,3200 4636,3209 4655,3232C4669,3248 4680,3268 4680,3275C4680,3283 4693,3298 4710,3310C4734,3327 4738,3336 4734,3359C4730,3377 4734,3391 4744,3399C4753,3407 4760,3418 4760,3424C4760,3430 4768,3447 4777,3460C4788,3475 4795,3504 4795,3530C4795,3555 4805,3595 4816,3620C4835,3659 4837,3686 4839,3825C4840,3913 4843,4023 4846,4070C4850,4126 4846,4192 4836,4264C4825,4335 4823,4376 4829,4384C4836,4392 4832,4410 4819,4439C4802,4479 4785,4549 4775,4625C4768,4679 4726,4804 4701,4845C4688,4867 4664,4899 4647,4917C4618,4948 4607,4964 4574,5027C4565,5044 4542,5066 4524,5076C4506,5086 4486,5106 4479,5121C4473,5136 4460,5156 4449,5166C4439,5175 4430,5191 4430,5201C4430,5211 4419,5231 4405,5246C4391,5261 4380,5278 4380,5285C4380,5292 4371,5309 4360,5323C4349,5337 4340,5362 4340,5378C4340,5395 4335,5412 4329,5416C4323,5419 4320,5434 4323,5447C4326,5463 4321,5479 4309,5491C4298,5502 4290,5519 4290,5530C4290,5540 4277,5563 4260,5580C4244,5597 4230,5615 4230,5620C4230,5624 4213,5639 4193,5651C4172,5664 4144,5686 4132,5700C4106,5727 4034,5771 3930,5821C3894,5838 3862,5858 3857,5866C3843,5890 3730,5970 3647,6014C3535,6074 3474,6090 3365,6090C3314,6090 3269,6095 3263,6101C3249,6115 3112,6150 3080,6148C3066,6147 3010,6144 2954,6141ZM2707,6014C2704,6011 2695,6010 2688,6013C2680,6016 2683,6019 2694,6019C2705,6020 2711,6017 2707,6014ZM2490,5845C2483,5837 2472,5830 2465,5830C2458,5830 2450,5837 2446,5845C2442,5856 2448,5860 2472,5860C2498,5860 2501,5858 2490,5845ZM2010,5685C2034,5671 2032,5671 1973,5670C1887,5670 1889,5688 1975,5698C1981,5699 1996,5693 2010,5685ZM2158,4291C2168,4285 2166,4281 2148,4277C2136,4273 2114,4270 2101,4270C2081,4270 2080,4272 2090,4285C2104,4301 2137,4305 2158,4291ZM1780,3199C1780,3189 1746,3187 1737,3197C1733,3200 1735,3209 1741,3217C1750,3227 1756,3227 1766,3219C1774,3213 1780,3204 1780,3199ZM1894,2730C1944,2711 1914,2688 1852,2698C1818,2703 1808,2726 1838,2733C1866,2741 1868,2740 1894,2730ZM2335,2140C2335,2120 2303,2116 2213,2125C2090,2136 2134,2158 2275,2156C2321,2155 2335,2152 2335,2140ZM2365,2060C2418,2048 2371,2039 2265,2042C2197,2044 2165,2049 2162,2058C2159,2067 2180,2070 2247,2069C2295,2068 2349,2064 2365,2060ZM2392,1977C2408,1951 2323,1948 2272,1973C2255,1981 2247,1981 2238,1972C2224,1958 2170,1956 2170,1970C2170,1998 2375,2005 2392,1977ZM2330,1901C2330,1890 2291,1880 2285,1890C2283,1894 2283,1900 2287,1904C2297,1913 2330,1911 2330,1901ZM3751,1745C3762,1741 3769,1733 3767,1727C3765,1719 3733,1715 3669,1716C3513,1718 3371,1739 3506,1741C3538,1741 3574,1745 3585,1749C3607,1758 3720,1755 3751,1745ZM3307,1737C3310,1734 3309,1727 3305,1721C3295,1704 3185,1707 3171,1724C3162,1735 3162,1739 3172,1744C3187,1750 3299,1744 3307,1737ZM3740,1650C3740,1645 3734,1640 3726,1640C3718,1640 3708,1645 3705,1650C3702,1656 3708,1660 3719,1660C3731,1660 3740,1656 3740,1650Z"
            style="fill-rule:nonzero;" />
    </g>
    <g transform="matrix(0.0208208,0,0,-0.0208208,1.1737e-17,128.008)">
        <path
            d="M3591,4406C3567,4393 3567,4392 3587,4386C3627,4373 3621,4353 3575,4341C3526,4329 3509,4313 3537,4304C3547,4301 3563,4294 3573,4289C3583,4284 3664,4282 3773,4286C4058,4296 4115,4292 4105,4260C4098,4236 4116,4226 4196,4211C4241,4203 4264,4203 4289,4211C4329,4225 4325,4240 4272,4264C4241,4278 4231,4288 4235,4300C4242,4322 4210,4336 4134,4345C4102,4349 4066,4357 4055,4363C4037,4373 4039,4375 4075,4385L4115,4397L4049,4408C3955,4425 3622,4423 3591,4406Z"
            style="fill-rule:nonzero;" />
    </g>
    <g transform="matrix(0.0208208,0,0,-0.0208208,1.1737e-17,128.008)">
        <path
            d="M3530,4250C3520,4243 3537,4240 3588,4240C3634,4240 3659,4244 3655,4250C3647,4263 3550,4263 3530,4250Z"
            style="fill-rule:nonzero;" />
    </g>
    <g transform="matrix(0.0208208,0,0,-0.0208208,1.1737e-17,128.008)">
        <path
            d="M2868,4173C2852,4171 2840,4162 2840,4154C2840,4143 2859,4140 2930,4140C2985,4140 3020,4144 3020,4150C3020,4156 3014,4162 3008,4165C2984,4172 2895,4177 2868,4173Z"
            style="fill-rule:nonzero;" />
    </g>
    <g transform="matrix(0.0208208,0,0,-0.0208208,1.1737e-17,128.008)">
        <path
            d="M4245,4171C4238,4159 4271,4140 4299,4140C4324,4140 4327,4165 4304,4174C4281,4183 4252,4181 4245,4171Z"
            style="fill-rule:nonzero;" />
    </g>
    <g transform="matrix(0.0208208,0,0,-0.0208208,1.1737e-17,128.008)">
        <path
            d="M2813,4093C2746,4089 2733,4076 2778,4058C2808,4046 3017,4046 3050,4058C3113,4081 2965,4103 2813,4093Z"
            style="fill-rule:nonzero;" />
    </g>
    <g transform="matrix(0.0208208,0,0,-0.0208208,1.1737e-17,128.008)">
        <path
            d="M2765,4014C2585,4003 2507,3991 2486,3972C2462,3949 2381,3930 2311,3930C2280,3930 2258,3925 2250,3915C2240,3903 2240,3899 2251,3896C2293,3883 2300,3880 2300,3872C2300,3868 2284,3856 2265,3847C2222,3827 2221,3818 2260,3803C2291,3791 3009,3802 3029,3815C3054,3830 3036,3838 2963,3847L2885,3856L2922,3873C2943,3882 2981,3890 3007,3891C3033,3891 3064,3895 3074,3899C3106,3911 3075,3922 2988,3930C2945,3934 2907,3940 2904,3943C2888,3959 2918,3970 2978,3971C3015,3972 3056,3975 3070,3979C3094,3986 3094,3987 3075,3997C3053,4009 2859,4019 2765,4014ZM2784,3884C2797,3879 2798,3875 2789,3864C2774,3846 2740,3846 2740,3863C2740,3888 2755,3895 2784,3884Z"
            style="fill-rule:nonzero;" />
    </g>
    <g transform="matrix(0.0208208,0,0,-0.0208208,1.1737e-17,128.008)">
        <path
            d="M3582,4000C3538,3990 3534,3984 3565,3976C3599,3967 3593,3949 3549,3935C3509,3921 3504,3896 3540,3892C3554,3890 3580,3884 3599,3878L3633,3867L3610,3850L3587,3832L3609,3820C3624,3813 3687,3808 3788,3808C4134,3807 4143,3808 4095,3846C4071,3865 4068,3871 4079,3884C4090,3897 4086,3902 4053,3916C4032,3924 3988,3945 3955,3961C3869,4003 3679,4023 3582,4000ZM3999,3866C4008,3855 4007,3851 3994,3846C3971,3837 3940,3848 3940,3866C3940,3884 3984,3885 3999,3866ZM3677,3864C3674,3861 3665,3860 3658,3863C3650,3866 3653,3869 3664,3869C3675,3870 3681,3867 3677,3864Z"
            style="fill-rule:nonzero;" />
    </g>
    <g transform="matrix(0.0208208,0,0,-0.0208208,1.1737e-17,128.008)">
        <path
            d="M2296,3991C2265,3979 2299,3970 2351,3977C2385,3982 2390,3985 2375,3991C2350,4001 2320,4001 2296,3991Z"
            style="fill-rule:nonzero;" />
    </g>
    <g transform="matrix(0.0208208,0,0,-0.0208208,1.1737e-17,128.008)">
        <path
            d="M2270,3751C2270,3728 2358,3724 2386,3745C2403,3758 2399,3759 2338,3760C2300,3760 2270,3756 2270,3751Z"
            style="fill-rule:nonzero;" />
    </g>
    <g transform="matrix(0.0208208,0,0,-0.0208208,1.1737e-17,128.008)">
        <path
            d="M2562,3748C2600,3741 2628,3741 2647,3748C2670,3757 2659,3758 2590,3758L2505,3757L2562,3748Z"
            style="fill-rule:nonzero;" />
    </g>
    <g transform="matrix(0.0208208,0,0,-0.0208208,1.1737e-17,128.008)">
        <path
            d="M2792,3748C2795,3739 2828,3734 2900,3732C2992,3730 3002,3731 2990,3745C2974,3765 2786,3768 2792,3748Z"
            style="fill-rule:nonzero;" />
    </g>
    <g transform="matrix(0.0208208,0,0,-0.0208208,1.1737e-17,128.008)">
        <path
            d="M2938,3653C2945,3650 2954,3651 2957,3654C2961,3657 2955,3660 2944,3659C2933,3659 2930,3656 2938,3653Z"
            style="fill-rule:nonzero;" />
    </g>
    <g transform="matrix(0.0208208,0,0,-0.0208208,1.1737e-17,128.008)">
        <path
            d="M3007,3504C2990,3487 3004,3480 3056,3480C3096,3480 3111,3484 3108,3493C3103,3506 3019,3515 3007,3504Z"
            style="fill-rule:nonzero;" />
    </g>
    <g transform="matrix(0.0208208,0,0,-0.0208208,1.1737e-17,128.008)">
        <path
            d="M3340,3440C3320,3425 3315,3412 3313,3371C3312,3325 3314,3318 3338,3306C3353,3299 3382,3290 3403,3286C3423,3282 3440,3275 3440,3270C3440,3256 3479,3238 3492,3246C3499,3251 3497,3257 3485,3266C3467,3279 3467,3281 3488,3303C3509,3325 3509,3327 3493,3350C3484,3363 3476,3383 3475,3394C3474,3407 3458,3424 3434,3437C3386,3465 3372,3465 3340,3440Z"
            style="fill-rule:nonzero;" />
    </g>
    <g transform="matrix(0.0208208,0,0,-0.0208208,1.1737e-17,128.008)">
        <path
            d="M3023,3439C2988,3429 2976,3415 2975,3386C2975,3373 2961,3359 2938,3347L2901,3327L2932,3311C2985,3284 2961,3263 2873,3261C2819,3260 2809,3244 2858,3236C2906,3228 3129,3228 3169,3236C3207,3244 3209,3258 3173,3266C3104,3281 3104,3281 3148,3304L3191,3326L3160,3354C3136,3375 3131,3384 3140,3395C3148,3405 3147,3412 3135,3424C3126,3433 3113,3440 3107,3440C3100,3440 3086,3442 3075,3444C3064,3447 3041,3444 3023,3439Z"
            style="fill-rule:nonzero;" />
    </g>
    <g transform="matrix(0.0208208,0,0,-0.0208208,1.1737e-17,128.008)">
        <path
            d="M2748,3403C2755,3400 2764,3401 2767,3404C2771,3407 2765,3410 2754,3409C2743,3409 2740,3406 2748,3403Z"
            style="fill-rule:nonzero;" />
    </g>
    <g transform="matrix(0.0208208,0,0,-0.0208208,1.1737e-17,128.008)">
        <path
            d="M4814,3339C4811,3333 4814,3324 4821,3319C4865,3290 4917,3302 4890,3335C4876,3352 4824,3355 4814,3339Z"
            style="fill-rule:nonzero;" />
    </g>
    <g transform="matrix(0.0208208,0,0,-0.0208208,1.1737e-17,128.008)">
        <path
            d="M4854,3265C4844,3241 4859,3230 4901,3230C4929,3230 4940,3234 4940,3245C4940,3275 4865,3294 4854,3265Z"
            style="fill-rule:nonzero;" />
    </g>
    <g transform="matrix(0.0208208,0,0,-0.0208208,1.1737e-17,128.008)">
        <path
            d="M2883,3183C2852,3177 2854,3163 2888,3156C2936,3146 3134,3147 3160,3158L3185,3168L3157,3179C3130,3189 2931,3192 2883,3183Z"
            style="fill-rule:nonzero;" />
    </g>
    <g transform="matrix(0.0208208,0,0,-0.0208208,1.1737e-17,128.008)">
        <path
            d="M4910,3170C4910,3165 4917,3160 4925,3160C4933,3160 4940,3165 4940,3170C4940,3176 4933,3180 4925,3180C4917,3180 4910,3176 4910,3170Z"
            style="fill-rule:nonzero;" />
    </g>
    <g transform="matrix(0.0208208,0,0,-0.0208208,1.1737e-17,128.008)">
        <path
            d="M2966,3102C2901,3091 2911,3073 2985,3065C3086,3054 3186,3073 3150,3095C3133,3106 3014,3110 2966,3102Z"
            style="fill-rule:nonzero;" />
    </g>
    <g transform="matrix(0.0208208,0,0,-0.0208208,1.1737e-17,128.008)">
        <path
            d="M2975,3029C2942,3026 2902,3016 2885,3008L2855,2992L2905,2985C2933,2981 2973,2974 2994,2970C3016,2965 3039,2964 3044,2968C3050,2971 3082,2979 3115,2985C3167,2995 3172,2998 3155,3007C3121,3026 3038,3036 2975,3029Z"
            style="fill-rule:nonzero;" />
    </g>
    <g transform="matrix(0.0208208,0,0,-0.0208208,1.1737e-17,128.008)">
        <path
            d="M1584,3015C1579,3003 1586,2991 1605,2976C1633,2954 1633,2953 1612,2948C1584,2940 1584,2915 1611,2897C1629,2884 1636,2884 1672,2898L1712,2914L1690,2932C1678,2942 1661,2950 1653,2950C1623,2950 1648,2975 1688,2985C1747,2999 1729,3020 1652,3027C1600,3032 1589,3030 1584,3015Z"
            style="fill-rule:nonzero;" />
    </g>
    <g transform="matrix(0.0208208,0,0,-0.0208208,1.1737e-17,128.008)">
        <path
            d="M3250,3005C3250,2995 3260,2990 3280,2990C3300,2990 3310,2995 3310,3005C3310,3015 3300,3020 3280,3020C3260,3020 3250,3015 3250,3005Z"
            style="fill-rule:nonzero;" />
    </g>
    <g transform="matrix(0.0208208,0,0,-0.0208208,1.1737e-17,128.008)">
        <path
            d="M4550,3006C4550,2997 4555,2990 4560,2990C4566,2990 4570,2994 4570,2999C4570,3005 4566,3012 4560,3015C4555,3018 4550,3014 4550,3006Z"
            style="fill-rule:nonzero;" />
    </g>
    <g transform="matrix(0.0208208,0,0,-0.0208208,1.1737e-17,128.008)">
        <path
            d="M2805,2938C2783,2932 2746,2927 2722,2925C2667,2922 2655,2910 2706,2910C2750,2910 2797,2885 2770,2877C2730,2864 2601,2850 2573,2856C2538,2863 2476,2844 2486,2829C2489,2824 2517,2820 2549,2820C2692,2820 2711,2789 2575,2778C2516,2774 2482,2766 2471,2756C2457,2741 2461,2740 2515,2740C2587,2740 2620,2732 2620,2715C2620,2699 2588,2690 2534,2690C2509,2690 2487,2684 2480,2675C2469,2662 2474,2660 2519,2660C2594,2660 2640,2631 2590,2615C2563,2606 2565,2590 2598,2563C2623,2541 2624,2539 2606,2529C2591,2520 2590,2516 2601,2509C2609,2504 2626,2500 2639,2500C2658,2500 2661,2504 2656,2524C2651,2544 2655,2549 2678,2555C2706,2562 2913,2579 2985,2580C3022,2581 3024,2582 3006,2595C2992,2605 2961,2610 2906,2610C2829,2610 2786,2620 2808,2633C2843,2655 3523,2691 3543,2671C3549,2665 3572,2660 3594,2661L3635,2661L3590,2676C3555,2687 3456,2691 3150,2695C2933,2698 2747,2700 2738,2700C2707,2700 2718,2727 2751,2734C2768,2737 2827,2740 2881,2740C2936,2740 2980,2744 2980,2748C2980,2753 2928,2763 2865,2770C2802,2777 2747,2786 2744,2791C2741,2796 2750,2800 2764,2800C2801,2800 2933,2829 2944,2840C2950,2846 2942,2852 2922,2856C2904,2860 2887,2866 2885,2870C2879,2880 2929,2896 2990,2904C3047,2912 3071,2926 3051,2939C3032,2951 2855,2950 2805,2938Z"
            style="fill-rule:nonzero;" />
    </g>
    <g transform="matrix(0.0208208,0,0,-0.0208208,1.1737e-17,128.008)">
        <path
            d="M1625,2861C1615,2843 1630,2810 1648,2810C1657,2811 1675,2816 1688,2824C1707,2834 1709,2839 1698,2847C1677,2865 1633,2873 1625,2861Z"
            style="fill-rule:nonzero;" />
    </g>
    <g transform="matrix(0.0208208,0,0,-0.0208208,1.1737e-17,128.008)">
        <path
            d="M1745,2846C1725,2832 1726,2831 1754,2820C1790,2807 1822,2816 1818,2838C1814,2860 1770,2865 1745,2846Z"
            style="fill-rule:nonzero;" />
    </g>
    <g transform="matrix(0.0208208,0,0,-0.0208208,1.1737e-17,128.008)">
        <path
            d="M3758,2833C3764,2831 3776,2831 3783,2833C3789,2836 3784,2838 3770,2838C3756,2838 3751,2836 3758,2833Z"
            style="fill-rule:nonzero;" />
    </g>
    <g transform="matrix(0.0208208,0,0,-0.0208208,1.1737e-17,128.008)">
        <path
            d="M2265,2679C2255,2664 2265,2658 2292,2662L2315,2665L2293,2678C2278,2686 2269,2687 2265,2679Z"
            style="fill-rule:nonzero;" />
    </g>
    <g transform="matrix(0.0208208,0,0,-0.0208208,1.1737e-17,128.008)">
        <path
            d="M3770,2675L3745,2662L3773,2655C3788,2651 3816,2651 3836,2654C3865,2660 3869,2664 3860,2676C3845,2694 3803,2694 3770,2675Z"
            style="fill-rule:nonzero;" />
    </g>
    <g transform="matrix(0.0208208,0,0,-0.0208208,1.1737e-17,128.008)">
        <path
            d="M3740,2612L3705,2608L3750,2594C3808,2576 3883,2575 3878,2592C3870,2615 3818,2622 3740,2612Z"
            style="fill-rule:nonzero;" />
    </g>
    <g transform="matrix(0.0208208,0,0,-0.0208208,1.1737e-17,128.008)">
        <path
            d="M1680,2596C1680,2574 1698,2567 1736,2575C1766,2580 1769,2584 1760,2596C1743,2615 1680,2615 1680,2596Z"
            style="fill-rule:nonzero;" />
    </g>
    <g transform="matrix(0.0208208,0,0,-0.0208208,1.1737e-17,128.008)">
        <path
            d="M2265,2599C2254,2583 2271,2576 2315,2579C2335,2581 2335,2581 2316,2595C2293,2613 2274,2614 2265,2599Z"
            style="fill-rule:nonzero;" />
    </g>
    <g transform="matrix(0.0208208,0,0,-0.0208208,1.1737e-17,128.008)">
        <path
            d="M3150,2518C3096,2506 3094,2504 3109,2486C3129,2462 3115,2453 3040,2446C2978,2440 2949,2428 2963,2414C2966,2411 3052,2408 3155,2408C3312,2407 3344,2409 3357,2423C3371,2437 3369,2439 3334,2449C3312,2455 3285,2460 3273,2460C3237,2460 3246,2477 3285,2484C3334,2494 3329,2508 3273,2515C3246,2519 3218,2523 3210,2525C3202,2526 3175,2523 3150,2518Z"
            style="fill-rule:nonzero;" />
    </g>
    <g transform="matrix(0.0208208,0,0,-0.0208208,1.1737e-17,128.008)">
        <path
            d="M1745,2510C1748,2505 1758,2500 1766,2500C1774,2500 1778,2505 1775,2510C1772,2516 1762,2520 1754,2520C1746,2520 1742,2516 1745,2510Z"
            style="fill-rule:nonzero;" />
    </g>
    <g transform="matrix(0.0208208,0,0,-0.0208208,1.1737e-17,128.008)">
        <path
            d="M2240,2435C2221,2425 2219,2420 2230,2417C2292,2396 2400,2401 2400,2425C2400,2451 2282,2459 2240,2435Z"
            style="fill-rule:nonzero;" />
    </g>
    <g transform="matrix(0.0208208,0,0,-0.0208208,1.1737e-17,128.008)">
        <path
            d="M4512,2437C4506,2430 4503,2414 4506,2403C4510,2389 4504,2374 4490,2360C4473,2343 4471,2336 4480,2325C4489,2314 4487,2305 4471,2284C4455,2263 4453,2254 4461,2238C4469,2223 4468,2214 4455,2200C4445,2189 4441,2174 4444,2162C4448,2150 4444,2136 4435,2127C4427,2118 4420,2097 4420,2079C4420,2060 4413,2042 4403,2034C4389,2024 4387,2017 4396,2003C4402,1992 4404,1973 4399,1957C4395,1941 4395,1918 4400,1905C4405,1892 4406,1880 4403,1877C4401,1874 4396,1807 4394,1728C4390,1588 4384,1494 4374,1415C4372,1393 4368,1357 4366,1335C4364,1313 4360,1288 4356,1279C4345,1254 4375,1235 4404,1248C4437,1263 4442,1293 4449,1535C4454,1703 4459,1751 4472,1775C4484,1796 4490,1840 4494,1923C4498,2018 4504,2048 4519,2074C4530,2092 4542,2133 4546,2166C4550,2198 4559,2235 4567,2247C4575,2258 4582,2297 4584,2332C4586,2385 4590,2397 4608,2405C4637,2418 4636,2428 4604,2440C4568,2454 4524,2452 4512,2437Z"
            style="fill-rule:nonzero;" />
    </g>
    <g transform="matrix(0.0208208,0,0,-0.0208208,1.1737e-17,128.008)">
        <path
            d="M2500,2345C2500,2335 2511,2330 2535,2330C2561,2330 2568,2333 2564,2345C2560,2354 2545,2360 2529,2360C2510,2360 2500,2355 2500,2345Z"
            style="fill-rule:nonzero;" />
    </g>
    <g transform="matrix(0.0208208,0,0,-0.0208208,1.1737e-17,128.008)">
        <path
            d="M3208,2348C3217,2339 3223,2339 3232,2348C3241,2357 3239,2360 3220,2360C3201,2360 3199,2357 3208,2348Z"
            style="fill-rule:nonzero;" />
    </g>
    <g transform="matrix(0.0208208,0,0,-0.0208208,1.1737e-17,128.008)">
        <path
            d="M3875,2180C3871,2174 3883,2170 3905,2170C3927,2170 3939,2174 3935,2180C3932,2186 3918,2190 3905,2190C3892,2190 3878,2186 3875,2180Z"
            style="fill-rule:nonzero;" />
    </g>
    <g transform="matrix(0.0208208,0,0,-0.0208208,1.1737e-17,128.008)">
        <path
            d="M4045,2180C4037,2167 4065,2156 4086,2164C4106,2172 4095,2190 4070,2190C4060,2190 4048,2185 4045,2180Z"
            style="fill-rule:nonzero;" />
    </g>
    <g transform="matrix(0.0208208,0,0,-0.0208208,1.1737e-17,128.008)">
        <path
            d="M3813,2111C3725,2100 3735,2090 3850,2076C3875,2073 3902,2075 3910,2080C3923,2089 3922,2092 3906,2105C3895,2113 3881,2119 3876,2119C3870,2118 3842,2114 3813,2111Z"
            style="fill-rule:nonzero;" />
    </g>
    <g transform="matrix(0.0208208,0,0,-0.0208208,1.1737e-17,128.008)">
        <path
            d="M3793,2033C3758,2028 3748,2005 3778,1998C3787,1996 3835,1995 3883,1995C3950,1995 3973,1999 3980,2010C3987,2021 3984,2027 3972,2032C3954,2039 3847,2040 3793,2033Z"
            style="fill-rule:nonzero;" />
    </g>
    <g transform="matrix(0.0208208,0,0,-0.0208208,1.1737e-17,128.008)">
        <path
            d="M3670,2015C3670,2006 3679,2000 3695,2000C3723,2000 3729,2015 3704,2024C3679,2034 3670,2031 3670,2015Z"
            style="fill-rule:nonzero;" />
    </g>
    <g transform="matrix(0.0208208,0,0,-0.0208208,1.1737e-17,128.008)">
        <path
            d="M4035,2019C4024,2003 4041,1996 4084,1999C4099,2000 4100,2003 4090,2015C4076,2032 4044,2035 4035,2019Z"
            style="fill-rule:nonzero;" />
    </g>
    <g transform="matrix(0.0208208,0,0,-0.0208208,1.1737e-17,128.008)">
        <path
            d="M3793,1951C3767,1946 3762,1942 3770,1930C3777,1919 3807,1914 3892,1909C3954,1906 4010,1902 4015,1900C4032,1894 4080,1919 4080,1933C4080,1942 4065,1950 4043,1954C3997,1961 3837,1960 3793,1951Z"
            style="fill-rule:nonzero;" />
    </g>
    <g transform="matrix(0.0208208,0,0,-0.0208208,1.1737e-17,128.008)">
        <path
            d="M3230,1935C3230,1925 3240,1920 3256,1920C3278,1920 3281,1922 3270,1935C3263,1943 3251,1950 3244,1950C3236,1950 3230,1943 3230,1935Z"
            style="fill-rule:nonzero;" />
    </g>
    <g transform="matrix(0.0208208,0,0,-0.0208208,1.1737e-17,128.008)">
        <path
            d="M3618,1923C3625,1920 3634,1921 3637,1924C3641,1927 3635,1930 3624,1929C3613,1929 3610,1926 3618,1923Z"
            style="fill-rule:nonzero;" />
    </g>
    <g transform="matrix(0.0208208,0,0,-0.0208208,1.1737e-17,128.008)">
        <path
            d="M3818,1875C3815,1871 3792,1867 3769,1866C3700,1862 3711,1843 3787,1834C3905,1820 4240,1833 4240,1851C4240,1868 4190,1872 4140,1859C4096,1848 4087,1848 4080,1860C4073,1872 4042,1876 3948,1878C3880,1880 3822,1879 3818,1875Z"
            style="fill-rule:nonzero;" />
    </g>
    <g transform="matrix(0.0208208,0,0,-0.0208208,1.1737e-17,128.008)">
        <path
            d="M3215,1860C3212,1855 3190,1853 3166,1856C3139,1860 3120,1858 3116,1851C3112,1845 3115,1840 3122,1840C3129,1840 3168,1837 3209,1835C3290,1830 3307,1834 3289,1856C3276,1872 3224,1875 3215,1860Z"
            style="fill-rule:nonzero;" />
    </g>
    <g transform="matrix(0.0208208,0,0,-0.0208208,1.1737e-17,128.008)">
        <path
            d="M3400,1863C3337,1853 3325,1849 3340,1840C3361,1829 3440,1825 3468,1834C3487,1840 3489,1844 3479,1856C3468,1870 3451,1871 3400,1863Z"
            style="fill-rule:nonzero;" />
    </g>
    <g transform="matrix(0.0208208,0,0,-0.0208208,1.1737e-17,128.008)">
        <path
            d="M3546,1862C3539,1850 3573,1840 3620,1840C3640,1840 3650,1844 3645,1849C3630,1863 3553,1873 3546,1862Z"
            style="fill-rule:nonzero;" />
    </g>
    <g transform="matrix(0.0208208,0,0,-0.0208208,1.1737e-17,128.008)">
        <path
            d="M4361,1211C4338,1196 4356,1170 4390,1170C4417,1170 4421,1173 4418,1193C4415,1217 4385,1226 4361,1211Z"
            style="fill-rule:nonzero;" />
    </g>
    <g transform="matrix(0.0208208,0,0,-0.0208208,1.1737e-17,128.008)">
        <path
            d="M4354,1119C4351,1113 4354,1104 4361,1099C4390,1081 4442,1093 4433,1116C4427,1133 4364,1135 4354,1119Z"
            style="fill-rule:nonzero;" />
    </g>
    <g transform="matrix(0.0208208,0,0,-0.0208208,1.1737e-17,128.008)">
        <path
            d="M2082,1033C2077,1023 2075,1009 2077,1002C2083,986 2025,922 1956,866C1855,785 1784,742 1712,720C1669,706 1635,689 1629,679C1624,669 1596,653 1567,645C1539,636 1504,623 1490,615C1466,602 1466,601 1485,595C1496,591 1515,584 1527,580C1539,575 1564,574 1583,577C1605,580 1620,578 1625,570C1631,561 1611,560 1539,565C1185,592 744,559 630,499C611,488 577,480 555,479C507,479 398,444 420,437C428,434 500,430 580,428C660,426 732,420 740,415C765,399 682,392 484,391C345,390 299,387 284,376C274,368 268,359 271,356C274,352 352,348 443,347C535,345 613,341 616,337C633,320 601,315 477,313C290,309 162,302 150,295C125,280 145,270 199,270C323,270 270,228 138,222C80,219 47,213 39,204C29,192 38,190 91,190C219,190 209,147 80,141C9,138 0,136 0,119C0,102 8,100 74,100C193,100 182,64 62,58C11,56 0,52 0,38C0,23 9,20 49,20C77,20 102,16 105,10C113,-3 183,-3 197,11C204,18 232,19 276,15C401,3 1133,14 1185,28L1215,37L1191,50C1172,60 1108,62 931,62C672,60 592,66 609,83C616,90 721,95 912,98C1073,100 1230,105 1260,109C1314,117 1314,117 1286,129C1271,135 1182,143 1089,147C973,151 921,157 923,164C925,171 997,177 1129,182C1338,189 1371,193 1353,211C1347,217 1253,223 1124,226C895,231 851,235 866,249C873,256 1213,271 1370,271C1406,272 1643,263 1648,261C1649,260 1645,250 1638,239C1631,227 1615,201 1603,181C1563,114 1520,27 1520,13C1520,2 1636,0 2188,1C2847,2 2854,2 2785,20C2747,29 2672,43 2620,50C2568,57 2507,68 2485,75C2389,107 2246,172 2212,200C2192,216 2168,230 2158,230C2149,230 2129,246 2114,266C2098,286 2075,304 2059,307C2017,315 2002,337 2026,356C2045,370 2044,371 2023,386C1993,408 1994,415 2030,430C2064,444 2068,457 2044,475C2029,485 2029,488 2044,502C2052,511 2065,520 2072,523C2082,526 2082,532 2072,550C2060,569 2061,575 2081,596C2099,615 2101,622 2090,635C2080,647 2080,654 2093,673C2102,686 2106,708 2103,723C2100,738 2103,756 2109,764C2118,775 2118,783 2109,799C2098,815 2098,823 2109,843C2120,863 2120,871 2108,889C2097,908 2097,913 2113,924C2135,941 2135,952 2110,968C2083,984 2085,994 2116,1009C2137,1018 2140,1023 2130,1035C2113,1055 2093,1054 2082,1033ZM1607,494C1612,478 1578,474 1480,478C1404,482 1398,484 1415,497C1439,514 1601,512 1607,494ZM1597,413C1599,407 1587,399 1570,395C1523,385 1379,387 1350,398C1325,408 1325,408 1360,418C1408,432 1592,429 1597,413ZM1539,338L1565,328L1541,319C1496,302 1348,297 1270,310C1208,321 1199,324 1220,331C1298,357 1481,361 1539,338ZM510,260C560,259 479,234 403,227C333,220 308,228 333,248C353,264 382,269 435,264C463,262 496,260 510,260ZM424,169C441,153 420,146 347,146C290,145 275,148 275,160C275,168 286,177 300,181C330,190 411,182 424,169ZM885,165C915,152 914,152 856,151C801,150 798,151 816,165C839,183 847,183 885,165ZM375,89C385,73 379,71 312,64C239,56 212,63 230,85C245,103 365,106 375,89Z"
            style="fill-rule:nonzero;" />
    </g>
    <g transform="matrix(0.0208208,0,0,-0.0208208,1.1737e-17,128.008)">
        <path
            d="M4390,1043C4344,1028 4344,1028 4365,1020C4376,1015 4414,1011 4449,1011C4512,1010 4513,1010 4495,1030C4477,1049 4427,1056 4390,1043Z"
            style="fill-rule:nonzero;" />
    </g>
    <g transform="matrix(0.0208208,0,0,-0.0208208,1.1737e-17,128.008)">
        <path
            d="M4565,970C4561,964 4510,960 4445,960C4339,960 4305,952 4325,932C4333,924 4641,928 4650,936C4658,945 4610,980 4589,980C4579,980 4568,976 4565,970Z"
            style="fill-rule:nonzero;" />
    </g>
    <g transform="matrix(0.0208208,0,0,-0.0208208,1.1737e-17,128.008)">
        <path
            d="M4310,881C4298,873 4298,867 4309,847C4320,827 4320,819 4309,802C4298,784 4298,778 4313,762C4322,752 4330,730 4330,713C4330,696 4337,677 4345,670C4353,663 4360,649 4360,638C4360,627 4369,607 4380,593C4391,579 4400,561 4400,553C4400,545 4409,527 4420,513C4435,494 4437,483 4430,470C4424,460 4420,442 4420,431C4420,420 4409,403 4395,394C4381,385 4363,363 4355,346C4347,329 4326,307 4310,298C4293,289 4280,274 4280,267C4280,259 4265,245 4247,237C4229,228 4197,207 4176,190C4155,174 4105,151 4066,139C4027,128 3975,112 3950,103C3862,74 3716,55 3470,40C3379,35 3278,24 3245,16C3192,4 3306,2 4228,1C4956,0 5277,3 5291,11C5302,17 5370,24 5440,27C5511,30 5567,36 5565,40C5563,44 5503,50 5433,54C5291,61 5240,68 5240,80C5240,92 5263,97 5343,105C5421,113 5423,125 5347,134C5319,138 5274,143 5248,146C5218,150 5200,157 5200,165C5200,182 5232,190 5310,190L5375,191L5330,205C5305,212 5254,222 5216,227C5126,237 5118,257 5200,266C5233,270 5263,276 5265,280C5268,285 5237,293 5198,300C5158,306 5114,316 5100,322C5076,332 5076,333 5095,341C5106,345 5133,349 5155,349C5177,350 5201,354 5208,359C5225,369 5208,374 5093,390C4985,406 4982,420 5085,436C5126,442 5130,444 5114,453C5103,459 5057,469 5010,475C4928,486 4926,487 4955,499C4972,507 5053,515 5144,518C5291,524 5301,526 5276,539C5254,551 5243,552 5218,542C5200,535 5182,534 5176,539C5170,544 5110,551 5043,555C4963,560 4917,567 4910,575C4898,590 4959,599 5097,603C5225,606 5197,629 5065,630C4988,630 4809,647 4802,655C4790,667 4816,672 4932,680C4999,685 5057,690 5060,691C5084,696 4937,719 4875,720C4831,720 4764,723 4727,727C4633,735 4656,755 4763,757C4899,759 4995,771 4974,783C4960,791 4718,805 4515,810C4479,811 4477,812 4493,824C4504,833 4561,840 4662,845C4797,851 4811,854 4789,865C4758,882 4333,896 4310,881Z"
            style="fill-rule:nonzero;" />
    </g>
    <g transform="matrix(0.0208208,0,0,-0.0208208,1.1737e-17,128.008)">
        <path
            d="M5175,462C5161,447 5191,440 5268,440C5336,440 5351,443 5342,452C5330,464 5186,473 5175,462Z"
            style="fill-rule:nonzero;" />
    </g>
    <g transform="matrix(0.0208208,0,0,-0.0208208,1.1737e-17,128.008)">
        <path
            d="M5340,370C5340,365 5352,360 5368,360C5389,360 5392,362 5380,370C5360,383 5340,383 5340,370Z"
            style="fill-rule:nonzero;" />
    </g>
    <g transform="matrix(0.0208208,0,0,-0.0208208,1.1737e-17,128.008)">
        <path
            d="M5400,280C5420,267 5447,267 5455,280C5459,286 5446,290 5423,290C5395,290 5389,287 5400,280Z"
            style="fill-rule:nonzero;" />
    </g>
    <g transform="matrix(0.0208208,0,0,-0.0208208,1.1737e-17,128.008)">
        <path
            d="M1413,223C1384,220 1370,214 1370,204C1370,184 1493,184 1509,204C1518,215 1517,219 1504,224C1496,227 1481,229 1472,228C1463,227 1436,225 1413,223Z"
            style="fill-rule:nonzero;" />
    </g>
    <g transform="matrix(0.0208208,0,0,-0.0208208,1.1737e-17,128.008)">
        <path
            d="M5443,193C5452,191 5466,191 5473,193C5479,196 5472,198 5455,198C5439,198 5433,196 5443,193Z"
            style="fill-rule:nonzero;" />
    </g>
    <g transform="matrix(0.0208208,0,0,-0.0208208,1.1737e-17,128.008)">
        <path
            d="M6088,113C6095,110 6104,111 6107,114C6111,117 6105,120 6094,119C6083,119 6080,116 6088,113Z"
            style="fill-rule:nonzero;" />
    </g>
    <g transform="matrix(0.0208208,0,0,-0.0208208,1.1737e-17,128.008)">
        <path d="M5633,33C5642,31 5656,31 5663,33C5669,36 5662,38 5645,38C5629,38 5623,36 5633,33Z"
            style="fill-rule:nonzero;" />
    </g>
    <g transform="matrix(0.0208208,0,0,-0.0208208,1.1737e-17,128.008)">
        <path d="M5948,33C5954,31 5966,31 5973,33C5979,36 5974,38 5960,38C5946,38 5941,36 5948,33Z"
            style="fill-rule:nonzero;" />
    </g>
    <style>
        path { fill: #000; }
        @media (prefers-color-scheme: dark) {
        path { fill: #FFF; }
        }
    </style>
</svg>