<?xml version="1.0" standalone="no"?>
<!DOCTYPE svg PUBLIC "-//W3C//DTD SVG 20010904//EN"
 "http://www.w3.org/TR/2001/REC-SVG-20010904/DTD/svg10.dtd">
<svg version="1.0" xmlns="http://www.w3.org/2000/svg"
 width="640.000000pt" height="640.000000pt" viewBox="0 0 640.000000 640.000000"
 preserveAspectRatio="xMidYMid meet">
<metadata>
Created by potrace 1.14, written by Peter Selinger 2001-2017
</metadata>
<g transform="translate(0.000000,640.000000) scale(0.100000,-0.100000)"
fill="#000000" stroke="none">
<path d="M2954 6141 c-90 -5 -103 -9 -133 -33 -29 -25 -52 -34 -132 -52 -28
-6 -103 -77 -124 -117 -13 -24 -21 -27 -91 -32 -43 -3 -82 -3 -87 0 -4 3 -5
18 -2 33 5 22 1 31 -17 44 -12 9 -33 16 -45 16 -33 0 -102 -29 -148 -62 -36
-26 -119 -56 -205 -73 -44 -9 -90 -43 -90 -67 0 -19 5 -21 62 -18 20 1 46 -4
58 -10 36 -20 11 -32 -59 -28 l-66 3 3 -42 c1 -23 -2 -44 -8 -48 -5 -3 -10
-14 -10 -24 0 -10 -9 -30 -20 -44 -11 -14 -20 -34 -20 -46 0 -11 -9 -28 -20
-39 -11 -10 -31 -40 -45 -67 -33 -62 -29 -89 30 -178 47 -71 48 -80 29 -174
-2 -12 -45 -65 -94 -119 -66 -70 -93 -107 -101 -138 -6 -22 -20 -59 -30 -82
-24 -53 -24 -64 5 -121 14 -27 32 -72 40 -101 15 -49 14 -56 -2 -85 -26 -49
-24 -182 5 -223 20 -28 22 -45 25 -200 3 -156 5 -171 25 -199 21 -28 23 -45
29 -232 5 -155 4 -209 -6 -233 -12 -29 -11 -32 11 -48 l24 -17 -40 -5 c-35 -4
-43 -10 -63 -50 -17 -33 -22 -55 -18 -82 4 -20 2 -40 -4 -43 -15 -9 -12 -34 5
-51 8 -9 15 -11 15 -6 0 5 20 13 45 16 51 8 61 32 19 42 -22 6 -24 8 -11 21
19 20 92 29 102 13 4 -6 2 -22 -5 -35 -11 -20 -9 -26 10 -45 20 -20 21 -23 5
-40 -16 -18 -16 -20 -1 -35 22 -23 20 -34 -8 -45 -36 -13 -40 -29 -11 -36 14
-3 29 -4 32 -1 13 13 43 -15 43 -40 0 -15 10 -37 22 -50 27 -28 18 -38 -30
-34 -38 3 -52 3 -159 1 -55 -1 -63 -4 -63 -21 0 -10 6 -20 13 -20 12 -2 34 -3
90 -7 46 -3 32 -28 -23 -38 -36 -7 -47 -12 -42 -22 6 -8 47 -13 131 -16 131
-3 163 -14 123 -42 -30 -21 -28 -31 13 -44 39 -13 45 -26 16 -35 -33 -10 -34
-35 -1 -47 54 -18 42 -27 -62 -48 -66 -13 -74 -26 -23 -36 36 -6 57 -25 37
-32 -21 -7 -13 -22 23 -43 19 -12 35 -27 35 -34 0 -7 13 -29 30 -50 17 -21 30
-46 30 -57 0 -11 11 -38 24 -61 17 -30 25 -63 29 -115 3 -56 9 -78 26 -96 11
-12 21 -33 21 -46 0 -13 10 -34 22 -47 17 -18 19 -26 10 -35 -19 -19 -15 -27
23 -42 30 -13 35 -19 30 -39 -6 -21 -1 -27 41 -48 48 -23 48 -23 21 -32 -35
-11 -36 -37 -1 -37 14 0 42 -8 61 -17 31 -14 33 -18 19 -28 -25 -19 -19 -29
30 -49 44 -18 44 -19 27 -38 -15 -17 -15 -21 -3 -28 8 -6 23 -10 33 -10 16 0
53 -15 66 -26 3 -3 -4 -11 -15 -18 -27 -20 -8 -37 50 -43 50 -6 87 -33 45 -33
-13 0 -30 -4 -37 -9 -27 -17 17 -32 124 -42 60 -5 125 -13 144 -18 34 -8 33
-8 -27 -16 -58 -7 -75 -16 -55 -29 7 -4 526 -29 557 -27 6 1 75 6 155 12 160
11 232 25 209 40 -8 5 -47 9 -88 9 -96 0 -86 10 15 15 122 5 247 24 255 37 12
19 1 28 -32 28 -44 0 -27 16 23 23 24 2 57 10 73 17 l30 12 -28 22 -29 23 62
14 c81 18 88 23 72 49 -11 18 -9 22 23 41 36 21 45 43 23 52 -7 3 6 13 29 22
23 10 44 24 47 31 7 17 -65 38 -103 29 -19 -4 -32 -1 -40 9 -12 14 -3 15 69
15 59 0 88 4 106 16 13 9 22 20 19 24 -3 5 -47 9 -97 9 -53 0 -106 5 -123 13
-29 12 -29 13 37 20 37 4 71 10 75 12 5 3 30 1 57 -5 56 -12 116 -3 116 17 0
7 -8 16 -17 19 -26 8 -180 10 -523 8 -118 -1 -233 -1 -255 -1 -22 0 -114 0
-205 -1 -237 -2 -494 7 -498 18 -3 11 135 24 238 23 73 -1 124 12 90 23 -40
12 -82 14 -110 5 -24 -9 -38 -8 -65 6 -25 11 -48 14 -78 10 -23 -4 -53 -2 -66
3 -23 8 -23 9 12 25 19 9 58 17 87 17 37 0 50 4 48 13 -3 6 -18 13 -34 14 -16
1 -77 5 -137 9 -89 5 -105 9 -96 20 6 8 28 14 48 14 20 0 67 3 104 7 97 9 70
25 -55 34 -57 4 -116 12 -133 19 l-30 13 28 10 c15 6 27 17 27 24 0 11 -16 17
-110 42 -22 6 -27 10 -14 10 12 1 35 6 53 12 30 11 31 12 14 24 -10 7 -40 16
-66 20 -26 4 -47 11 -47 15 0 10 87 30 133 31 l32 0 -40 15 c-21 8 -89 17
-150 20 -99 5 -114 4 -130 -12 -17 -17 -17 -18 11 -28 28 -9 47 -26 39 -34
-26 -26 -225 -13 -225 14 0 9 13 14 38 15 20 1 48 4 61 8 38 10 6 28 -66 36
-42 5 -63 11 -63 20 0 16 102 26 227 22 84 -2 106 4 84 26 -11 11 -38 12 -181
8 -63 -2 -175 14 -173 24 1 6 28 14 60 18 94 14 107 17 97 27 -6 6 -23 10 -39
11 -48 1 -155 22 -155 29 0 10 204 30 279 27 43 -1 65 2 68 10 7 19 -45 27
-86 13 -28 -9 -54 -9 -111 0 -41 6 -94 14 -117 17 -56 7 -55 20 2 27 25 3 66
9 91 12 76 9 38 30 -67 37 -50 3 -94 8 -97 12 -15 15 24 27 107 32 122 8 115
26 -14 35 -53 4 -100 10 -103 13 -16 16 27 28 113 33 118 6 123 24 9 34 -97 9
-127 16 -119 28 3 5 27 12 53 15 121 16 131 29 29 39 -102 11 -118 38 -30 51
52 8 46 18 -24 36 -52 14 -48 36 8 45 36 6 38 8 21 20 -10 7 -35 15 -55 19
-47 9 -48 32 -2 41 44 8 40 26 -8 37 -27 7 -37 14 -37 28 0 13 7 19 24 19 31
0 44 18 19 26 -69 22 -77 41 -25 60 l27 10 -32 17 c-42 22 -42 44 -1 55 l32 8
-38 18 c-40 19 -43 35 -8 51 27 12 28 21 2 35 -28 15 -25 39 8 51 l27 11 -22
15 c-30 20 -29 41 2 55 28 13 32 23 10 32 -22 8 -18 44 5 51 25 8 26 24 3 40
-15 11 -15 15 -4 29 7 9 22 16 32 16 25 0 24 26 -1 33 -31 8 -24 37 10 44 41
8 46 20 16 35 -28 12 -34 33 -12 41 7 3 34 9 60 12 58 9 59 22 1 31 -86 12
-60 39 49 50 36 4 66 10 66 15 0 7 -16 12 -94 25 -36 6 -38 8 -21 20 11 8 44
14 76 14 74 0 119 9 119 25 0 15 -44 25 -106 25 -23 0 -45 4 -49 9 -7 12 32
18 132 24 81 5 115 21 86 42 -15 11 -15 13 3 22 10 6 37 13 59 17 68 12 76 16
73 38 -4 30 39 42 127 33 58 -5 79 -12 99 -30 16 -15 44 -26 73 -30 27 -4 70
-10 96 -15 43 -7 69 -4 137 17 25 7 -18 33 -56 33 -17 0 -42 9 -55 20 -26 21
-23 23 46 21 22 -1 46 2 53 7 24 16 -15 35 -71 33 -62 -1 -87 6 -87 24 0 16
35 26 70 18 16 -3 36 -1 46 5 15 8 12 11 -17 21 -19 6 -46 11 -59 10 -14 0
-72 4 -130 10 -65 7 -148 7 -220 2 -63 -4 -132 -9 -153 -10 -21 0 -50 -7 -65
-15 -23 -13 -25 -15 -9 -21 9 -4 17 -11 17 -16 0 -13 -69 -29 -125 -29 -96 0
-93 33 5 47 l53 8 -52 19 c-59 21 -66 42 -17 52 37 6 40 28 5 39 -29 9 -23 24
16 41 41 17 43 26 13 46 l-22 15 27 18 c30 19 35 40 12 49 -24 9 -17 25 17 39
l33 13 -23 19 c-27 24 -28 42 -3 50 25 7 34 32 15 39 -25 9 -15 26 24 43 47
19 47 20 33 37 -17 20 -7 33 32 41 54 12 70 24 56 41 -15 19 -3 29 53 44 43
12 54 25 39 44 -12 14 -2 19 74 42 19 6 31 18 35 34 7 31 62 46 230 60 68 6
127 13 129 16 3 3 -1 9 -9 14 -10 7 12 9 65 8 44 -1 65 -3 48 -5 -57 -7 -36
-20 45 -27 42 -4 101 -9 131 -12 30 -4 81 0 114 7 51 10 57 14 43 24 -15 12
-15 13 0 19 20 8 78 8 98 0 9 -3 16 -12 16 -20 0 -16 51 -30 142 -39 71 -7
106 -28 68 -40 -33 -10 -7 -32 48 -40 73 -10 132 -27 132 -36 0 -5 -12 -9 -26
-9 -42 0 -22 -24 27 -33 117 -21 153 -30 139 -35 -59 -19 -65 -23 -50 -32 8
-4 44 -13 78 -20 35 -6 76 -16 90 -22 l27 -10 -24 -9 c-19 -8 -21 -12 -11 -24
7 -8 22 -15 34 -15 12 0 31 -7 42 -15 18 -14 18 -16 2 -26 -26 -15 -22 -38 6
-45 29 -7 42 -32 21 -40 -16 -6 -21 -34 -7 -34 5 0 16 -6 26 -13 16 -12 17
-16 5 -36 -15 -24 -15 -23 38 -58 17 -12 17 -13 1 -23 -22 -14 -13 -37 18 -44
23 -6 35 -36 14 -36 -17 0 -11 -35 9 -52 13 -11 18 -24 14 -38 -3 -12 1 -28
12 -40 10 -11 14 -26 10 -39 -3 -12 1 -30 10 -44 8 -13 13 -31 9 -40 -3 -8 2
-27 11 -41 9 -14 14 -30 10 -36 -3 -6 3 -26 15 -45 12 -19 19 -38 16 -43 -3
-5 2 -21 10 -37 8 -16 13 -33 11 -39 -2 -6 2 -27 9 -46 7 -19 13 -42 13 -50 3
-42 13 -97 23 -117 6 -11 8 -27 6 -35 -3 -7 -1 -24 4 -38 5 -14 12 -43 14 -65
6 -53 11 -88 23 -160 6 -33 8 -68 5 -77 -3 -10 0 -27 6 -38 6 -11 7 -26 3 -33
-7 -11 -14 -115 -14 -207 0 -19 -5 -40 -10 -47 -15 -17 -2 -33 26 -33 32 0 42
20 19 37 -18 14 -17 15 16 43 27 23 32 31 23 41 -10 9 -7 18 12 41 14 16 25
36 25 43 0 8 13 23 30 35 24 17 28 26 24 49 -4 18 0 32 10 40 9 8 16 19 16 25
0 6 8 23 17 36 11 15 18 44 18 70 0 25 10 65 21 90 19 39 21 66 23 205 1 88 4
198 7 245 4 56 0 122 -10 194 -11 71 -13 112 -7 120 7 8 3 26 -10 55 -17 40
-34 110 -44 186 -7 54 -49 179 -74 220 -13 22 -37 54 -54 72 -29 31 -40 47
-73 110 -9 17 -32 39 -50 49 -18 10 -38 30 -45 45 -6 15 -19 35 -30 45 -10 9
-19 25 -19 35 0 10 -11 30 -25 45 -14 15 -25 32 -25 39 0 7 -9 24 -20 38 -11
14 -20 39 -20 55 0 17 -5 34 -11 38 -6 3 -9 18 -6 31 3 16 -2 32 -14 44 -11
11 -19 28 -19 39 0 10 -13 33 -30 50 -16 17 -30 35 -30 40 0 4 -17 19 -37 31
-21 13 -49 35 -61 49 -26 27 -98 71 -202 121 -36 17 -68 37 -73 45 -14 24
-127 104 -210 148 -112 60 -173 76 -282 76 -51 0 -96 5 -102 11 -14 14 -151
49 -183 47 -14 -1 -70 -4 -126 -7z m-247 -127 c-3 -3 -12 -4 -19 -1 -8 3 -5 6
6 6 11 1 17 -2 13 -5z m-217 -169 c-7 -8 -18 -15 -25 -15 -7 0 -15 7 -19 15
-4 11 2 15 26 15 26 0 29 -2 18 -15z m-480 -160 c24 -14 22 -14 -37 -15 -86 0
-84 18 2 28 6 1 21 -5 35 -13z m148 -1394 c10 -6 8 -10 -10 -14 -12 -4 -34 -7
-47 -7 -20 0 -21 2 -11 15 14 16 47 20 68 6z m-378 -1092 c0 -10 -34 -12 -43
-2 -4 3 -2 12 4 20 9 10 15 10 25 2 8 -6 14 -15 14 -20z m114 -469 c50 -19 20
-42 -42 -32 -34 5 -44 28 -14 35 28 8 30 7 56 -3z m441 -590 c0 -20 -32 -24
-122 -15 -123 11 -79 33 62 31 46 -1 60 -4 60 -16z m30 -80 c53 -12 6 -21
-100 -18 -68 2 -100 7 -103 16 -3 9 18 12 85 11 48 -1 102 -5 118 -9z m27 -83
c16 -26 -69 -29 -120 -4 -17 8 -25 8 -34 -1 -14 -14 -68 -16 -68 -2 0 28 205
35 222 7z m-62 -76 c0 -11 -39 -21 -45 -11 -2 4 -2 10 2 14 10 9 43 7 43 -3z
m1421 -156 c11 -4 18 -12 16 -18 -2 -8 -34 -12 -98 -11 -156 2 -298 23 -163
25 32 0 68 4 79 8 22 9 135 6 166 -4z m-444 -8 c3 -3 2 -10 -2 -16 -10 -17
-120 -14 -134 3 -9 11 -9 15 1 20 15 6 127 0 135 -7z m433 -87 c0 -5 -6 -10
-14 -10 -8 0 -18 5 -21 10 -3 6 3 10 14 10 12 0 21 -4 21 -10z"/>
<path d="M3591 4406 c-24 -13 -24 -14 -4 -20 40 -13 34 -33 -12 -45 -49 -12
-66 -28 -38 -37 10 -3 26 -10 36 -15 10 -5 91 -7 200 -3 285 10 342 6 332 -26
-7 -24 11 -34 91 -49 45 -8 68 -8 93 0 40 14 36 29 -17 53 -31 14 -41 24 -37
36 7 22 -25 36 -101 45 -32 4 -68 12 -79 18 -18 10 -16 12 20 22 l40 12 -66
11 c-94 17 -427 15 -458 -2z"/>
<path d="M3530 4250 c-10 -7 7 -10 58 -10 46 0 71 4 67 10 -8 13 -105 13 -125
0z"/>
<path d="M2868 4173 c-16 -2 -28 -11 -28 -19 0 -11 19 -14 90 -14 55 0 90 4
90 10 0 6 -6 12 -12 15 -24 7 -113 12 -140 8z"/>
<path d="M4245 4171 c-7 -12 26 -31 54 -31 25 0 28 25 5 34 -23 9 -52 7 -59
-3z"/>
<path d="M2813 4093 c-67 -4 -80 -17 -35 -35 30 -12 239 -12 272 0 63 23 -85
45 -237 35z"/>
<path d="M2765 4014 c-180 -11 -258 -23 -279 -42 -24 -23 -105 -42 -175 -42
-31 0 -53 -5 -61 -15 -10 -12 -10 -16 1 -19 42 -13 49 -16 49 -24 0 -4 -16
-16 -35 -25 -43 -20 -44 -29 -5 -44 31 -12 749 -1 769 12 25 15 7 23 -66 32
l-78 9 37 17 c21 9 59 17 85 18 26 0 57 4 67 8 32 12 1 23 -86 31 -43 4 -81
10 -84 13 -16 16 14 27 74 28 37 1 78 4 92 8 24 7 24 8 5 18 -22 12 -216 22
-310 17z m19 -130 c13 -5 14 -9 5 -20 -15 -18 -49 -18 -49 -1 0 25 15 32 44
21z"/>
<path d="M3582 4000 c-44 -10 -48 -16 -17 -24 34 -9 28 -27 -16 -41 -40 -14
-45 -39 -9 -43 14 -2 40 -8 59 -14 l34 -11 -23 -17 -23 -18 22 -12 c15 -7 78
-12 179 -12 346 -1 355 0 307 38 -24 19 -27 25 -16 38 11 13 7 18 -26 32 -21
8 -65 29 -98 45 -86 42 -276 62 -373 39z m417 -134 c9 -11 8 -15 -5 -20 -23
-9 -54 2 -54 20 0 18 44 19 59 0z m-322 -2 c-3 -3 -12 -4 -19 -1 -8 3 -5 6 6
6 11 1 17 -2 13 -5z"/>
<path d="M2296 3991 c-31 -12 3 -21 55 -14 34 5 39 8 24 14 -25 10 -55 10 -79
0z"/>
<path d="M2270 3751 c0 -23 88 -27 116 -6 17 13 13 14 -48 15 -38 0 -68 -4
-68 -9z"/>
<path d="M2562 3748 c38 -7 66 -7 85 0 23 9 12 10 -57 10 l-85 -1 57 -9z"/>
<path d="M2792 3748 c3 -9 36 -14 108 -16 92 -2 102 -1 90 13 -16 20 -204 23
-198 3z"/>
<path d="M2938 3653 c7 -3 16 -2 19 1 4 3 -2 6 -13 5 -11 0 -14 -3 -6 -6z"/>
<path d="M3007 3504 c-17 -17 -3 -24 49 -24 40 0 55 4 52 13 -5 13 -89 22
-101 11z"/>
<path d="M3340 3440 c-20 -15 -25 -28 -27 -69 -1 -46 1 -53 25 -65 15 -7 44
-16 65 -20 20 -4 37 -11 37 -16 0 -14 39 -32 52 -24 7 5 5 11 -7 20 -18 13
-18 15 3 37 21 22 21 24 5 47 -9 13 -17 33 -18 44 -1 13 -17 30 -41 43 -48 28
-62 28 -94 3z"/>
<path d="M3023 3439 c-35 -10 -47 -24 -48 -53 0 -13 -14 -27 -37 -39 l-37 -20
31 -16 c53 -27 29 -48 -59 -50 -54 -1 -64 -17 -15 -25 48 -8 271 -8 311 0 38
8 40 22 4 30 -69 15 -69 15 -25 38 l43 22 -31 28 c-24 21 -29 30 -20 41 8 10
7 17 -5 29 -9 9 -22 16 -28 16 -7 0 -21 2 -32 4 -11 3 -34 0 -52 -5z"/>
<path d="M2748 3403 c7 -3 16 -2 19 1 4 3 -2 6 -13 5 -11 0 -14 -3 -6 -6z"/>
<path d="M4814 3339 c-3 -6 0 -15 7 -20 44 -29 96 -17 69 16 -14 17 -66 20
-76 4z"/>
<path d="M4854 3265 c-10 -24 5 -35 47 -35 28 0 39 4 39 15 0 30 -75 49 -86
20z"/>
<path d="M2883 3183 c-31 -6 -29 -20 5 -27 48 -10 246 -9 272 2 l25 10 -28 11
c-27 10 -226 13 -274 4z"/>
<path d="M4910 3170 c0 -5 7 -10 15 -10 8 0 15 5 15 10 0 6 -7 10 -15 10 -8 0
-15 -4 -15 -10z"/>
<path d="M2966 3102 c-65 -11 -55 -29 19 -37 101 -11 201 8 165 30 -17 11
-136 15 -184 7z"/>
<path d="M2975 3029 c-33 -3 -73 -13 -90 -21 l-30 -16 50 -7 c28 -4 68 -11 89
-15 22 -5 45 -6 50 -2 6 3 38 11 71 17 52 10 57 13 40 22 -34 19 -117 29 -180
22z"/>
<path d="M1584 3015 c-5 -12 2 -24 21 -39 28 -22 28 -23 7 -28 -28 -8 -28 -33
-1 -51 18 -13 25 -13 61 1 l40 16 -22 18 c-12 10 -29 18 -37 18 -30 0 -5 25
35 35 59 14 41 35 -36 42 -52 5 -63 3 -68 -12z"/>
<path d="M3250 3005 c0 -10 10 -15 30 -15 20 0 30 5 30 15 0 10 -10 15 -30 15
-20 0 -30 -5 -30 -15z"/>
<path d="M4550 3006 c0 -9 5 -16 10 -16 6 0 10 4 10 9 0 6 -4 13 -10 16 -5 3
-10 -1 -10 -9z"/>
<path d="M2805 2938 c-22 -6 -59 -11 -83 -13 -55 -3 -67 -15 -16 -15 44 0 91
-25 64 -33 -40 -13 -169 -27 -197 -21 -35 7 -97 -12 -87 -27 3 -5 31 -9 63 -9
143 0 162 -31 26 -42 -59 -4 -93 -12 -104 -22 -14 -15 -10 -16 44 -16 72 0
105 -8 105 -25 0 -16 -32 -25 -86 -25 -25 0 -47 -6 -54 -15 -11 -13 -6 -15 39
-15 75 0 121 -29 71 -45 -27 -9 -25 -25 8 -52 25 -22 26 -24 8 -34 -15 -9 -16
-13 -5 -20 8 -5 25 -9 38 -9 19 0 22 4 17 24 -5 20 -1 25 22 31 28 7 235 24
307 25 37 1 39 2 21 15 -14 10 -45 15 -100 15 -77 0 -120 10 -98 23 35 22 715
58 735 38 6 -6 29 -11 51 -10 l41 0 -45 15 c-35 11 -134 15 -440 19 -217 3
-403 5 -412 5 -31 0 -20 27 13 34 17 3 76 6 130 6 55 0 99 4 99 8 0 5 -52 15
-115 22 -63 7 -118 16 -121 21 -3 5 6 9 20 9 37 0 169 29 180 40 6 6 -2 12
-22 16 -18 4 -35 10 -37 14 -6 10 44 26 105 34 57 8 81 22 61 35 -19 12 -196
11 -246 -1z"/>
<path d="M1625 2861 c-10 -18 5 -51 23 -51 9 1 27 6 40 14 19 10 21 15 10 23
-21 18 -65 26 -73 14z"/>
<path d="M1745 2846 c-20 -14 -19 -15 9 -26 36 -13 68 -4 64 18 -4 22 -48 27
-73 8z"/>
<path d="M3758 2833 c6 -2 18 -2 25 0 6 3 1 5 -13 5 -14 0 -19 -2 -12 -5z"/>
<path d="M2265 2679 c-10 -15 0 -21 27 -17 l23 3 -22 13 c-15 8 -24 9 -28 1z"/>
<path d="M3770 2675 l-25 -13 28 -7 c15 -4 43 -4 63 -1 29 6 33 10 24 22 -15
18 -57 18 -90 -1z"/>
<path d="M3740 2612 l-35 -4 45 -14 c58 -18 133 -19 128 -2 -8 23 -60 30 -138
20z"/>
<path d="M1680 2596 c0 -22 18 -29 56 -21 30 5 33 9 24 21 -17 19 -80 19 -80
0z"/>
<path d="M2265 2599 c-11 -16 6 -23 50 -20 20 2 20 2 1 16 -23 18 -42 19 -51
4z"/>
<path d="M3150 2518 c-54 -12 -56 -14 -41 -32 20 -24 6 -33 -69 -40 -62 -6
-91 -18 -77 -32 3 -3 89 -6 192 -6 157 -1 189 1 202 15 14 14 12 16 -23 26
-22 6 -49 11 -61 11 -36 0 -27 17 12 24 49 10 44 24 -12 31 -27 4 -55 8 -63
10 -8 1 -35 -2 -60 -7z"/>
<path d="M1745 2510 c3 -5 13 -10 21 -10 8 0 12 5 9 10 -3 6 -13 10 -21 10 -8
0 -12 -4 -9 -10z"/>
<path d="M2240 2435 c-19 -10 -21 -15 -10 -18 62 -21 170 -16 170 8 0 26 -118
34 -160 10z"/>
<path d="M4512 2437 c-6 -7 -9 -23 -6 -34 4 -14 -2 -29 -16 -43 -17 -17 -19
-24 -10 -35 9 -11 7 -20 -9 -41 -16 -21 -18 -30 -10 -46 8 -15 7 -24 -6 -38
-10 -11 -14 -26 -11 -38 4 -12 0 -26 -9 -35 -8 -9 -15 -30 -15 -48 0 -19 -7
-37 -17 -45 -14 -10 -16 -17 -7 -31 6 -11 8 -30 3 -46 -4 -16 -4 -39 1 -52 5
-13 6 -25 3 -28 -2 -3 -7 -70 -9 -149 -4 -140 -10 -234 -20 -313 -2 -22 -6
-58 -8 -80 -2 -22 -6 -47 -10 -56 -11 -25 19 -44 48 -31 33 15 38 45 45 287 5
168 10 216 23 240 12 21 18 65 22 148 4 95 10 125 25 151 11 18 23 59 27 92 4
32 13 69 21 81 8 11 15 50 17 85 2 53 6 65 24 73 29 13 28 23 -4 35 -36 14
-80 12 -92 -3z"/>
<path d="M2500 2345 c0 -10 11 -15 35 -15 26 0 33 3 29 15 -4 9 -19 15 -35 15
-19 0 -29 -5 -29 -15z"/>
<path d="M3208 2348 c9 -9 15 -9 24 0 9 9 7 12 -12 12 -19 0 -21 -3 -12 -12z"/>
<path d="M3875 2180 c-4 -6 8 -10 30 -10 22 0 34 4 30 10 -3 6 -17 10 -30 10
-13 0 -27 -4 -30 -10z"/>
<path d="M4045 2180 c-8 -13 20 -24 41 -16 20 8 9 26 -16 26 -10 0 -22 -5 -25
-10z"/>
<path d="M3813 2111 c-88 -11 -78 -21 37 -35 25 -3 52 -1 60 4 13 9 12 12 -4
25 -11 8 -25 14 -30 14 -6 -1 -34 -5 -63 -8z"/>
<path d="M3793 2033 c-35 -5 -45 -28 -15 -35 9 -2 57 -3 105 -3 67 0 90 4 97
15 7 11 4 17 -8 22 -18 7 -125 8 -179 1z"/>
<path d="M3670 2015 c0 -9 9 -15 25 -15 28 0 34 15 9 24 -25 10 -34 7 -34 -9z"/>
<path d="M4035 2019 c-11 -16 6 -23 49 -20 15 1 16 4 6 16 -14 17 -46 20 -55
4z"/>
<path d="M3793 1951 c-26 -5 -31 -9 -23 -21 7 -11 37 -16 122 -21 62 -3 118
-7 123 -9 17 -6 65 19 65 33 0 9 -15 17 -37 21 -46 7 -206 6 -250 -3z"/>
<path d="M3230 1935 c0 -10 10 -15 26 -15 22 0 25 2 14 15 -7 8 -19 15 -26 15
-8 0 -14 -7 -14 -15z"/>
<path d="M3618 1923 c7 -3 16 -2 19 1 4 3 -2 6 -13 5 -11 0 -14 -3 -6 -6z"/>
<path d="M3818 1875 c-3 -4 -26 -8 -49 -9 -69 -4 -58 -23 18 -32 118 -14 453
-1 453 17 0 17 -50 21 -100 8 -44 -11 -53 -11 -60 1 -7 12 -38 16 -132 18 -68
2 -126 1 -130 -3z"/>
<path d="M3215 1860 c-3 -5 -25 -7 -49 -4 -27 4 -46 2 -50 -5 -4 -6 -1 -11 6
-11 7 0 46 -3 87 -5 81 -5 98 -1 80 21 -13 16 -65 19 -74 4z"/>
<path d="M3400 1863 c-63 -10 -75 -14 -60 -23 21 -11 100 -15 128 -6 19 6 21
10 11 22 -11 14 -28 15 -79 7z"/>
<path d="M3546 1862 c-7 -12 27 -22 74 -22 20 0 30 4 25 9 -15 14 -92 24 -99
13z"/>
<path d="M4361 1211 c-23 -15 -5 -41 29 -41 27 0 31 3 28 23 -3 24 -33 33 -57
18z"/>
<path d="M4354 1119 c-3 -6 0 -15 7 -20 29 -18 81 -6 72 17 -6 17 -69 19 -79
3z"/>
<path d="M2082 1033 c-5 -10 -7 -24 -5 -31 6 -16 -52 -80 -121 -136 -101 -81
-172 -124 -244 -146 -43 -14 -77 -31 -83 -41 -5 -10 -33 -26 -62 -34 -28 -9
-63 -22 -77 -30 -24 -13 -24 -14 -5 -20 11 -4 30 -11 42 -15 12 -5 37 -6 56
-3 22 3 37 1 42 -7 6 -9 -14 -10 -86 -5 -354 27 -795 -6 -909 -66 -19 -11 -53
-19 -75 -20 -48 0 -157 -35 -135 -42 8 -3 80 -7 160 -9 80 -2 152 -8 160 -13
25 -16 -58 -23 -256 -24 -139 -1 -185 -4 -200 -15 -10 -8 -16 -17 -13 -20 3
-4 81 -8 172 -9 92 -2 170 -6 173 -10 17 -17 -15 -22 -139 -24 -187 -4 -315
-11 -327 -18 -25 -15 -5 -25 49 -25 124 0 71 -42 -61 -48 -58 -3 -91 -9 -99
-18 -10 -12 -1 -14 52 -14 128 0 118 -43 -11 -49 -71 -3 -80 -5 -80 -22 0 -17
8 -19 74 -19 119 0 108 -36 -12 -42 -51 -2 -62 -6 -62 -20 0 -15 9 -18 49 -18
28 0 53 -4 56 -10 8 -13 78 -13 92 1 7 7 35 8 79 4 125 -12 857 -1 909 13 l30
9 -24 13 c-19 10 -83 12 -260 12 -259 -2 -339 4 -322 21 7 7 112 12 303 15
161 2 318 7 348 11 54 8 54 8 26 20 -15 6 -104 14 -197 18 -116 4 -168 10
-166 17 2 7 74 13 206 18 209 7 242 11 224 29 -6 6 -100 12 -229 15 -229 5
-273 9 -258 23 7 7 347 22 504 22 36 1 273 -8 278 -10 1 -1 -3 -11 -10 -22 -7
-12 -23 -38 -35 -58 -40 -67 -83 -154 -83 -168 0 -11 116 -13 668 -12 659 1
666 1 597 19 -38 9 -113 23 -165 30 -52 7 -113 18 -135 25 -96 32 -239 97
-273 125 -20 16 -44 30 -54 30 -9 0 -29 16 -44 36 -16 20 -39 38 -55 41 -42 8
-57 30 -33 49 19 14 18 15 -3 30 -30 22 -29 29 7 44 34 14 38 27 14 45 -15 10
-15 13 0 27 8 9 21 18 28 21 10 3 10 9 0 27 -12 19 -11 25 9 46 18 19 20 26 9
39 -10 12 -10 19 3 38 9 13 13 35 10 50 -3 15 0 33 6 41 9 11 9 19 0 35 -11
16 -11 24 0 44 11 20 11 28 -1 46 -11 19 -11 24 5 35 22 17 22 28 -3 44 -27
16 -25 26 6 41 21 9 24 14 14 26 -17 20 -37 19 -48 -2z m-475 -539 c5 -16 -29
-20 -127 -16 -76 4 -82 6 -65 19 24 17 186 15 192 -3z m-10 -81 c2 -6 -10 -14
-27 -18 -47 -10 -191 -8 -220 3 -25 10 -25 10 10 20 48 14 232 11 237 -5z
m-58 -75 l26 -10 -24 -9 c-45 -17 -193 -22 -271 -9 -62 11 -71 14 -50 21 78
26 261 30 319 7z m-1029 -78 c50 -1 -31 -26 -107 -33 -70 -7 -95 1 -70 21 20
16 49 21 102 16 28 -2 61 -4 75 -4z m-86 -91 c17 -16 -4 -23 -77 -23 -57 -1
-72 2 -72 14 0 8 11 17 25 21 30 9 111 1 124 -12z m461 -4 c30 -13 29 -13 -29
-14 -55 -1 -58 0 -40 14 23 18 31 18 69 0z m-510 -76 c10 -16 4 -18 -63 -25
-73 -8 -100 -1 -82 21 15 18 135 21 145 4z"/>
<path d="M4390 1043 c-46 -15 -46 -15 -25 -23 11 -5 49 -9 84 -9 63 -1 64 -1
46 19 -18 19 -68 26 -105 13z"/>
<path d="M4565 970 c-4 -6 -55 -10 -120 -10 -106 0 -140 -8 -120 -28 8 -8 316
-4 325 4 8 9 -40 44 -61 44 -10 0 -21 -4 -24 -10z"/>
<path d="M4310 881 c-12 -8 -12 -14 -1 -34 11 -20 11 -28 0 -45 -11 -18 -11
-24 4 -40 9 -10 17 -32 17 -49 0 -17 7 -36 15 -43 8 -7 15 -21 15 -32 0 -11 9
-31 20 -45 11 -14 20 -32 20 -40 0 -8 9 -26 20 -40 15 -19 17 -30 10 -43 -6
-10 -10 -28 -10 -39 0 -11 -11 -28 -25 -37 -14 -9 -32 -31 -40 -48 -8 -17 -29
-39 -45 -48 -17 -9 -30 -24 -30 -31 0 -8 -15 -22 -33 -30 -18 -9 -50 -30 -71
-47 -21 -16 -71 -39 -110 -51 -39 -11 -91 -27 -116 -36 -88 -29 -234 -48 -480
-63 -91 -5 -192 -16 -225 -24 -53 -12 61 -14 983 -15 728 -1 1049 2 1063 10
11 6 79 13 149 16 71 3 127 9 125 13 -2 4 -62 10 -132 14 -142 7 -193 14 -193
26 0 12 23 17 103 25 78 8 80 20 4 29 -28 4 -73 9 -99 12 -30 4 -48 11 -48 19
0 17 32 25 110 25 l65 1 -45 14 c-25 7 -76 17 -114 22 -90 10 -98 30 -16 39
33 4 63 10 65 14 3 5 -28 13 -67 20 -40 6 -84 16 -98 22 -24 10 -24 11 -5 19
11 4 38 8 60 8 22 1 46 5 53 10 17 10 0 15 -115 31 -108 16 -111 30 -8 46 41
6 45 8 29 17 -11 6 -57 16 -104 22 -82 11 -84 12 -55 24 17 8 98 16 189 19
147 6 157 8 132 21 -22 12 -33 13 -58 3 -18 -7 -36 -8 -42 -3 -6 5 -66 12
-133 16 -80 5 -126 12 -133 20 -12 15 49 24 187 28 128 3 100 26 -32 27 -77 0
-256 17 -263 25 -12 12 14 17 130 25 67 5 125 10 128 11 24 5 -123 28 -185 29
-44 0 -111 3 -148 7 -94 8 -71 28 36 30 136 2 232 14 211 26 -14 8 -256 22
-459 27 -36 1 -38 2 -22 14 11 9 68 16 169 21 135 6 149 9 127 20 -31 17 -456
31 -479 16z"/>
<path d="M5175 462 c-14 -15 16 -22 93 -22 68 0 83 3 74 12 -12 12 -156 21
-167 10z"/>
<path d="M5340 370 c0 -5 12 -10 28 -10 21 0 24 2 12 10 -20 13 -40 13 -40 0z"/>
<path d="M5400 280 c20 -13 47 -13 55 0 4 6 -9 10 -32 10 -28 0 -34 -3 -23
-10z"/>
<path d="M1413 223 c-29 -3 -43 -9 -43 -19 0 -20 123 -20 139 0 9 11 8 15 -5
20 -8 3 -23 5 -32 4 -9 -1 -36 -3 -59 -5z"/>
<path d="M6375 214 c-11 -2 -46 -6 -77 -9 -52 -6 -56 -8 -43 -21 8 -9 15 -18
15 -22 -1 -19 -29 -41 -55 -44 -17 -2 10 -7 59 -11 50 -5 98 -13 108 -18 17
-9 18 -4 18 61 0 38 -1 69 -2 69 -2 -1 -12 -3 -23 -5z"/>
<path d="M5443 193 c9 -2 23 -2 30 0 6 3 -1 5 -18 5 -16 0 -22 -2 -12 -5z"/>
<path d="M6088 113 c7 -3 16 -2 19 1 4 3 -2 6 -13 5 -11 0 -14 -3 -6 -6z"/>
<path d="M6380 40 c0 -5 5 -10 10 -10 6 0 10 5 10 10 0 6 -4 10 -10 10 -5 0
-10 -4 -10 -10z"/>
<path d="M5633 33 c9 -2 23 -2 30 0 6 3 -1 5 -18 5 -16 0 -22 -2 -12 -5z"/>
<path d="M5948 33 c6 -2 18 -2 25 0 6 3 1 5 -13 5 -14 0 -19 -2 -12 -5z"/>
</g>
</svg>
