<svg enable-background="new 0 0 1560 1960" viewBox="0 0 1560 1960" xmlns="http://www.w3.org/2000/svg"><path d="m906.885 972.137v14.863h-14.863v59.453h14.863 14.863v-74.316z" fill="#744e26"/><path d="m758.252 1031.59h-29.727v14.863h-14.863v29.727h29.727v-14.863h14.863z" fill="#744e26"/><path d="m847.432 987h-14.863v-14.863h14.863zm14.863 0h-14.863v14.863h14.863zm29.726 14.863v44.59h-29.726-29.727v14.863h-29.726-44.59v-44.589h29.727v-29.727h14.863v14.863h44.59v14.864h14.863v-14.864zm-74.316 14.864h-14.863v14.863h14.863zm-44.589-29.727h14.863v-14.863h-14.863z" fill="#4ec2c8"/><path d="m847.432 868.094v-14.863h-104.042v14.863h-14.864v89.179h29.727v-14.863h-14.863v-29.726h14.863v29.726h14.863v-29.726h29.726v-29.727h44.59v14.864h14.863v-29.727z" fill="#744e26"/><path d="m862.295 868.095h14.863v14.863h-14.863z" fill="#fff"/><path d="m773.115 987h14.863v29.727h-44.589v-14.863h-29.727v-29.727h59.453zm89.18 14.864h-14.863v14.863h14.863zm-59.454 29.726h14.863v-14.863h-14.863zm59.454-148.632v14.863h14.863v29.726h-14.863v44.59h-14.864v14.863h29.727v-14.863h14.863v-14.863h14.863v-14.864-29.726-29.726zm-29.727 89.179h-44.59v14.863h14.863v14.864h44.59v-14.864h-14.863z" fill="#fbd800"/><g fill="#2a2a2a"><path d="m921.748 957.273v-118.905h-14.863-178.359v14.863h-14.863v104.042h-44.59v14.864h-14.864v44.589h59.454v14.864h-29.727v14.863h-14.863v14.863h14.863v14.864h14.863v14.863h29.727v14.863h14.863v-14.863h14.863v-14.863h104.043v-14.864h74.316v-104.043zm0 89.18h-89.18v14.863h-89.179v14.864h-29.726v-29.727h14.863v-14.863h29.726v-14.864h-14.863v-14.863h-74.316v-14.863h14.863v-14.863h29.727 44.589v-14.864h-29.726v-44.589-44.59h14.863v-14.863h104.043v14.863h14.863v-14.863h44.59v104.042h-14.864v14.864h-14.863v14.863h-14.863v14.863h29.726v-14.863h14.864v-14.863h14.863z"/><path d="m832.568 912.684h-14.863v-14.863h14.863zm-163.495 148.632h-14.863v14.863h14.863zm44.59 59.453h14.863v-14.863h-14.863zm-44.59-14.863h14.863v-14.863h-14.863zm-44.59 0h14.863v-14.863h-14.863zm237.812-163.496v-14.863h-44.59v14.863h-14.863v29.727h29.726 29.727v-14.864h-29.727v-14.863z"/></g></svg>