<?xml version="1.0" standalone="no"?><!-- Generator: Gravit.io --><svg xmlns="http://www.w3.org/2000/svg" xmlns:xlink="http://www.w3.org/1999/xlink" style="isolation:isolate" viewBox="0 0 1408 1958.955" width="1408" height="1958.955"><defs><clipPath id="_clipPath_hFJuaAHyjG3K2wuWG8g9N0YbOdXg7dyW"><rect width="1408" height="1958.955"/></clipPath></defs><g clip-path="url(#_clipPath_hFJuaAHyjG3K2wuWG8g9N0YbOdXg7dyW)"><g><path d=" M 673.392 734.608 L 1408 734.608 L 1408 0 L 673.392 0 L 673.392 734.608 Z  M 734.608 61.22 L 1346.784 61.22 L 1346.784 673.392 L 734.608 673.392 L 734.608 61.22 Z " fill="rgb(42,42,42)"/><path d=" M 734.608 673.392 L 734.608 612.176 L 1285.567 612.176 L 1285.567 61.22 L 1346.784 61.22 L 1346.784 673.392 L 734.608 673.392 Z " fill="rgb(116,78,38)"/><path d=" M 795.824 122.437 L 1285.563 122.437 L 1285.563 612.176 L 795.824 612.176 L 795.824 122.437 Z " fill="rgb(251,216,0)"/><path d=" M 1101.91 244.874 L 1163.126 244.874 L 1163.126 306.09 L 1101.91 306.09 L 1101.91 244.874 Z " fill="rgb(42,42,42)"/><path d=" M 1040.694 306.09 L 1101.91 306.09 L 1101.91 367.306 L 1040.694 367.306 L 1040.694 306.09 Z " fill="rgb(42,42,42)"/><path d=" M 979.478 367.306 L 1040.694 367.306 L 1040.694 428.522 L 979.478 428.522 L 979.478 367.306 Z " fill="rgb(42,42,42)"/><path d=" M 918.261 428.527 L 979.478 428.527 L 979.478 489.743 L 918.261 489.743 L 918.261 428.527 Z " fill="rgb(42,42,42)"/><path d=" M 857.041 183.657 L 918.257 183.657 L 918.257 244.874 L 857.041 244.874 L 857.041 183.657 Z " fill="rgb(42,42,42)"/><path d=" M 1163.131 489.743 L 1224.347 489.743 L 1224.347 550.959 L 1163.131 550.959 L 1163.131 489.743 Z " fill="rgb(42,42,42)"/><path d=" M 1163.131 1346.784 L 1163.131 1408 L 1101.914 1408 L 1101.914 1652.869 L 1163.131 1652.869 L 1224.347 1652.869 L 1224.347 1346.784 L 1163.131 1346.784 Z " fill="rgb(116,78,38)"/><path d=" M 550.955 1591.653 L 428.518 1591.653 L 428.518 1652.869 L 367.302 1652.869 L 367.302 1775.306 L 489.739 1775.306 L 489.739 1714.09 L 550.955 1714.09 L 550.955 1591.653 Z " fill="rgb(116,78,38)"/><path d=" M 918.261 1408 L 857.045 1408 L 857.045 1346.784 L 918.261 1346.784 L 918.261 1408 Z  M 979.478 1408 L 918.261 1408 L 918.261 1469.216 L 979.478 1469.216 L 979.478 1408 Z  M 1101.91 1469.216 L 1101.91 1652.869 L 979.478 1652.869 L 857.041 1652.869 L 857.041 1714.086 L 734.608 1714.086 L 550.955 1714.086 L 550.955 1530.437 L 673.392 1530.437 L 673.392 1408 L 734.608 1408 L 734.608 1469.216 L 918.261 1469.216 L 918.261 1530.437 L 979.478 1530.437 L 979.478 1469.216 L 1101.91 1469.216 Z  M 795.824 1530.437 L 734.608 1530.437 L 734.608 1591.653 L 795.824 1591.653 L 795.824 1530.437 Z  M 612.176 1408 L 673.392 1408 L 673.392 1346.784 L 612.176 1346.784 L 612.176 1408 Z " fill="rgb(78,194,200)"/><path d=" M 918.261 918.261 L 918.261 857.045 L 489.743 857.045 L 489.743 918.261 L 428.522 918.261 L 428.522 1285.563 L 550.959 1285.563 L 550.959 1224.347 L 489.743 1224.347 L 489.743 1101.914 L 550.959 1101.914 L 550.959 1224.347 L 612.176 1224.347 L 612.176 1101.914 L 734.608 1101.914 L 734.608 979.478 L 918.261 979.478 L 918.261 1040.698 L 979.478 1040.698 L 979.478 918.261 L 918.261 918.261 Z " fill="rgb(116,78,38)"/><path d=" M 979.478 918.265 L 1040.694 918.265 L 1040.694 979.482 L 979.478 979.482 L 979.478 918.265 Z " fill="rgb(255,255,255)"/><path d=" M 612.171 1408 L 673.388 1408 L 673.388 1530.437 L 489.739 1530.437 L 489.739 1469.22 L 367.302 1469.22 L 367.302 1346.784 L 612.171 1346.784 L 612.171 1408 Z  M 979.478 1469.22 L 918.261 1469.22 L 918.261 1530.437 L 979.478 1530.437 L 979.478 1469.22 Z  M 734.604 1591.653 L 795.82 1591.653 L 795.82 1530.437 L 734.604 1530.437 L 734.604 1591.653 Z  M 979.478 979.482 L 979.478 1040.698 L 1040.694 1040.698 L 1040.694 1163.131 L 979.478 1163.131 L 979.478 1346.784 L 918.257 1346.784 L 918.257 1408 L 1040.694 1408 L 1040.694 1346.784 L 1101.91 1346.784 L 1101.91 1285.567 L 1163.126 1285.567 L 1163.126 1224.347 L 1163.126 1101.914 L 1163.126 979.482 L 979.478 979.482 Z  M 857.041 1346.784 L 673.388 1346.784 L 673.388 1408 L 734.604 1408 L 734.604 1469.22 L 918.257 1469.22 L 918.257 1408 L 857.041 1408 L 857.041 1346.784 Z " fill="rgb(251,216,0)"/><path d=" M 1224.347 1285.563 L 1224.347 795.829 L 1163.131 795.829 L 428.522 795.829 L 428.522 857.045 L 367.306 857.045 L 367.306 1285.563 L 183.653 1285.563 L 183.653 1346.784 L 122.433 1346.784 L 122.433 1530.433 L 367.306 1530.433 L 367.306 1591.653 L 244.869 1591.653 L 244.869 1652.869 L 183.653 1652.869 L 183.653 1714.086 L 244.869 1714.086 L 244.869 1775.306 L 306.086 1775.306 L 306.086 1836.522 L 428.522 1836.522 L 428.522 1897.739 L 489.739 1897.739 L 489.739 1836.522 L 550.955 1836.522 L 550.955 1775.306 L 979.478 1775.306 L 979.478 1714.086 L 1285.563 1714.086 L 1285.563 1285.563 L 1224.347 1285.563 Z  M 1224.347 1652.869 L 857.041 1652.869 L 857.041 1714.086 L 489.739 1714.086 L 489.739 1775.306 L 367.306 1775.306 L 367.306 1652.869 L 428.522 1652.869 L 428.522 1591.653 L 550.955 1591.653 L 550.955 1530.433 L 489.739 1530.433 L 489.739 1469.216 L 183.653 1469.216 L 183.653 1408 L 244.869 1408 L 244.869 1346.784 L 367.306 1346.784 L 550.955 1346.784 L 550.955 1285.563 L 428.522 1285.563 L 428.522 1101.914 L 428.522 918.261 L 489.739 918.261 L 489.739 857.045 L 918.261 857.045 L 918.261 918.261 L 979.478 918.261 L 979.478 857.045 L 1163.131 857.045 L 1163.131 1285.563 L 1101.91 1285.563 L 1101.91 1346.784 L 1040.694 1346.784 L 1040.694 1408 L 979.478 1408 L 979.478 1469.216 L 1101.91 1469.216 L 1101.91 1408 L 1163.131 1408 L 1163.131 1346.784 L 1224.347 1346.784 L 1224.347 1652.869 Z " fill="rgb(42,42,42)"/><path d=" M 857.041 1101.914 L 795.824 1101.914 L 795.824 1040.698 L 857.041 1040.698 L 857.041 1101.914 Z  M 183.653 1714.086 L 122.437 1714.086 L 122.437 1775.302 L 183.653 1775.302 L 183.653 1714.086 Z  M 367.306 1958.955 L 428.522 1958.955 L 428.522 1897.739 L 367.306 1897.739 L 367.306 1958.955 Z  M 183.653 1897.739 L 244.869 1897.739 L 244.869 1836.522 L 183.653 1836.522 L 183.653 1897.739 Z  M 0 1897.739 L 61.216 1897.739 L 61.216 1836.522 L 0 1836.522 L 0 1897.739 Z  M 979.478 1224.347 L 979.478 1163.131 L 795.824 1163.131 L 795.824 1224.347 L 734.608 1224.347 L 734.608 1346.784 L 857.041 1346.784 L 979.478 1346.784 L 979.478 1285.563 L 857.041 1285.563 L 857.041 1224.347 L 979.478 1224.347 Z " fill="rgb(42,42,42)"/><path d=" M 795.825 122.437 L 1285.563 122.437 L 1285.563 61.22 L 734.608 61.22 L 734.608 122.437 L 734.608 612.176 L 795.825 612.176 L 795.825 122.437 Z " fill="rgb(255,255,255)"/><path d=" M 795.824 1040.698 L 918.26 1040.698 L 918.26 979.482 L 795.824 979.482 L 795.824 979.482 L 795.824 979.482 L 795.824 979.482 L 734.608 979.482 L 734.608 1101.914 L 795.824 1101.914 L 795.824 1101.914 L 795.824 1040.698 L 795.824 1040.698 L 795.824 1040.698 L 795.824 1040.698 L 795.824 1040.698 Z  M 857.041 1101.914 L 795.824 1101.914 L 795.824 1101.914 L 795.824 1163.131 L 1040.696 1163.131 L 1040.696 1101.914 L 1040.694 1101.914 L 1040.694 1040.698 L 857.041 1040.698 L 857.041 1101.914 L 857.041 1101.914 L 857.041 1101.914 L 857.041 1101.914 L 857.041 1101.914 L 857.041 1101.914 Z  M 550.955 1224.347 L 734.608 1224.347 L 734.608 1346.784 L 550.955 1346.784 L 550.955 1224.347 L 550.955 1224.347 L 550.955 1224.347 L 550.955 1224.347 Z  M 489.739 1101.914 L 550.955 1101.914 L 550.955 1224.347 L 489.739 1224.347 L 489.739 1101.914 L 489.739 1101.914 L 489.739 1101.914 Z  M 612.176 1101.914 L 795.824 1101.914 L 795.824 1224.347 L 612.176 1224.347 L 612.176 1101.914 L 612.176 1101.914 Z  M 857.041 1224.347 L 979.478 1224.347 L 979.478 1285.563 L 857.041 1285.563 L 857.041 1224.347 Z " fill-rule="evenodd" fill="rgb(255,255,255)"/><path d=" M 244.869 1469.22 L 367.302 1469.22 L 367.302 1346.784 L 244.869 1346.784 L 244.869 1408.002 L 183.653 1408.002 L 183.653 1469.22 L 244.869 1469.22 L 244.869 1469.22 Z " fill="rgb(255,255,255)"/><path d=" M 1163.126 918.265 L 1163.131 918.265 L 1163.131 857.045 L 979.478 857.045 L 979.478 918.265 L 1040.696 918.265 L 1040.696 979.482 L 1163.126 979.482 L 1163.126 918.265 Z " fill="rgb(255,255,255)"/></g></g></svg>