<svg height="100" width="100" xmlns="http://www.w3.org/2000/svg" xmlns:xlink="http://www.w3.org/1999/xlink"><clipPath id="a"><path d="m0 0h100v100h-100z"/></clipPath><g clip-path="url(#a)"><path d="m6.222 75h6.278v6.278h-6.278zm0-6.278h6.278v6.278h-6.278z" fill="#f8d098"/><path d="m6.222 62.444h6.278v6.278h-6.278z" fill="#f8d098"/><g fill="#4d3605"><path d="m6.222 56.166h6.278v6.278h-6.278zm6.278 37.556h6.278v6.278h-6.278zm6.278 0h6.278v6.278h-6.278z"/><path d="m24.944 93.722h6.278v6.278h-6.278zm6.278 0h6.278v6.278h-6.278zm31.278 0h6.278v6.278h-6.278zm6.278 0h6.278v6.278h-6.278z"/><path d="m74.944 93.722h6.278v6.278h-6.278z"/><path d="m81.222 93.722h6.278v6.278h-6.278zm-62.444-6.278h6.278v6.278h-6.278z"/><path d="m24.944 87.444h6.278v6.278h-6.278zm6.278 0h6.278v6.278h-6.278zm31.278 0h6.278v6.278h-6.278zm6.278 0h6.278v6.278h-6.278z"/><path d="m74.944 87.444h6.278v6.278h-6.278z"/></g><path d="m24.944 81.278h6.278v6.278h-6.278zm6.278 0h6.278v6.278h-6.278zm6.278 0h6.278v6.278h-6.278zm18.722 0h6.278v6.278h-6.278zm6.278 0h6.278v6.278h-6.278zm6.278 0h6.278v6.278h-6.278z" fill="#be1e2d"/><path d="m12.5 75h6.278v6.278h-6.278zm6.278 0h6.278v6.278h-6.278z" fill="#fcba63"/><path d="m24.944 75h6.278v6.278h-6.278zm6.278 0h6.278v6.278h-6.278zm6.278 0h6.278v6.278h-6.278zm6.278 0h6.278v6.278h-6.278z" fill="#be1e2d"/><path d="m49.944 75h6.278v6.278h-6.278zm6.278 0h6.278v6.278h-6.278zm6.278 0h6.278v6.278h-6.278zm6.278 0h6.278v6.278h-6.278z" fill="#be1e2d"/><path d="m74.944 75h6.278v6.278h-6.278z" fill="#fcba63"/><path d="m81.222 75h6.278v6.278h-6.278zm6.278 0h6.278v6.278h-6.278zm-75-6.278h6.278v6.278h-6.278zm6.278 0h6.278v6.278h-6.278z" fill="#fcba63"/><path d="m24.944 68.722h6.278v6.278h-6.278z" fill="#fcba63"/><path d="m31.222 68.722h6.278v6.278h-6.278zm6.278 0h6.278v6.278h-6.278zm6.278 0h6.278v6.278h-6.278z" fill="#be1e2d"/><path d="m49.944 68.722h6.278v6.278h-6.278zm6.278 0h6.278v6.278h-6.278zm6.278 0h6.278v6.278h-6.278z" fill="#be1e2d"/><path d="m68.778 68.722h6.278v6.278h-6.278z" fill="#fcba63"/><path d="m74.944 68.722h6.278v6.278h-6.278z" fill="#fcba63"/><path d="m81.222 68.722h6.278v6.278h-6.278zm6.278 0h6.278v6.278h-6.278zm-75-6.278h6.278v6.278h-6.278zm6.278 0h6.278v6.278h-6.278z" fill="#fcba63"/><path d="m24.944 62.444h6.278v6.278h-6.278z" fill="#4d3605"/><path d="m31.222 62.444h6.278v6.278h-6.278z" fill="#be1e2d"/><path d="m37.5 62.444h6.278v6.278h-6.278z" fill="#fcba63"/><path d="m43.778 62.444h6.278v6.278h-6.278z" fill="#be1e2d"/><path d="m49.944 62.444h6.278v6.278h-6.278z" fill="#be1e2d"/><path d="m56.222 62.444h6.278v6.278h-6.278z" fill="#fcba63"/><path d="m62.5 62.444h6.278v6.278h-6.278z" fill="#be1e2d"/><path d="m68.778 62.444h6.278v6.278h-6.278z" fill="#4d3605"/><path d="m74.944 62.444h6.278v6.278h-6.278z" fill="#fcba63"/><path d="m81.222 62.444h6.278v6.278h-6.278zm6.278 0h6.278v6.278h-6.278z" fill="#fcba63"/><path d="m12.5 56.278h6.278v6.278h-6.278zm6.278 0h6.278v6.278h-6.278z" fill="#4d3605"/><path d="m24.944 56.278h6.278v6.278h-6.278zm6.278 0h6.278v6.278h-6.278z" fill="#4d3605"/><path d="m37.5 56.278h6.278v6.278h-6.278zm6.278 0h6.278v6.278h-6.278z" fill="#be1e2d"/><path d="m49.944 56.278h6.278v6.278h-6.278zm6.278 0h6.278v6.278h-6.278z" fill="#be1e2d"/><path d="m62.5 56.278h6.278v6.278h-6.278zm6.278 0h6.278v6.278h-6.278z" fill="#4d3605"/><path d="m74.944 56.278h6.278v6.278h-6.278z" fill="#4d3605"/><path d="m81.222 56.278h6.278v6.278h-6.278zm6.278 0h6.278v6.278h-6.278zm-75-6.278h6.278v6.278h-6.278zm6.278 0h6.278v6.278h-6.278z" fill="#4d3605"/><path d="m24.944 50h6.278v6.278h-6.278zm6.278 0h6.278v6.278h-6.278z" fill="#4d3605"/><path d="m37.5 50h6.278v6.278h-6.278z" fill="#be1e2d"/><path d="m43.778 50h6.278v6.278h-6.278z" fill="#4d3605"/><path d="m49.944 50h6.278v6.278h-6.278z" fill="#4d3605"/><path d="m56.222 50h6.278v6.278h-6.278z" fill="#be1e2d"/><path d="m62.5 50h6.278v6.278h-6.278zm6.278 0h6.278v6.278h-6.278z" fill="#4d3605"/><path d="m74.944 50h6.278v6.278h-6.278z" fill="#4d3605"/><path d="m81.222 50h6.278v6.278h-6.278zm-62.444-6.278h6.278v6.278h-6.278z" fill="#4d3605"/><path d="m24.944 43.722h6.278v6.278h-6.278zm6.278 0h6.278v6.278h-6.278z" fill="#4d3605"/><path d="m37.5 43.722h6.278v6.278h-6.278z" fill="#be1e2d"/><path d="m43.778 43.722h6.278v6.278h-6.278z" fill="#4d3605"/><path d="m49.944 43.722h6.278v6.278h-6.278zm6.278 0h6.278v6.278h-6.278z" fill="#4d3605"/><path d="m31.222 37.444h6.278v6.278h-6.278zm6.278 0h6.278v6.278h-6.278zm6.278 0h6.278v6.278h-6.278z" fill="#fcba63"/><path d="m49.944 37.444h6.278v6.278h-6.278zm6.278 0h6.278v6.278h-6.278zm6.278 0h6.278v6.278h-6.278zm6.278 0h6.278v6.278h-6.278z" fill="#fcba63"/><path d="m18.778 31.278h6.278v6.278h-6.278z" fill="#4d3605"/><path d="m24.944 31.278h6.278v6.278h-6.278z" fill="#4d3605"/><path d="m31.222 31.278h6.278v6.278h-6.278zm6.278 0h6.278v6.278h-6.278zm6.278 0h6.278v6.278h-6.278z" fill="#fcba63"/><path d="m49.944 31.278h6.278v6.278h-6.278z" fill="#fcba63"/><path d="m56.222 31.278h6.278v6.278h-6.278zm6.278 0h6.278v6.278h-6.278zm6.278 0h6.278v6.278h-6.278z" fill="#4d3605"/><path d="m74.944 31.278h6.278v6.278h-6.278zm-56.166-6.278h6.278v6.278h-6.278z" fill="#4d3605"/><path d="m24.944 25h6.278v6.278h-6.278z" fill="#fcba63"/><path d="m31.222 25h6.278v6.278h-6.278zm6.278 0h6.278v6.278h-6.278z" fill="#4d3605"/><path d="m43.778 25h6.278v6.278h-6.278z" fill="#fcba63"/><path d="m49.944 25h6.278v6.278h-6.278zm6.278 0h6.278v6.278h-6.278z" fill="#fcba63"/><path d="m62.5 25h6.278v6.278h-6.278z" fill="#4d3605"/><path d="m68.778 25h6.278v6.278h-6.278z" fill="#fcba63"/><path d="m74.944 25h6.278v6.278h-6.278z" fill="#fcba63"/><path d="m81.222 25h6.278v6.278h-6.278z" fill="#fcba63"/><path d="m18.778 18.722h6.278v6.278h-6.278z" fill="#4d3605"/><path d="m24.944 18.722h6.278v6.278h-6.278z" fill="#fcba63"/><path d="m31.222 18.722h6.278v6.278h-6.278z" fill="#4d3605"/><path d="m37.5 18.722h6.278v6.278h-6.278zm6.278 0h6.278v6.278h-6.278z" fill="#fcba63"/><path d="m49.944 18.722h6.278v6.278h-6.278z" fill="#fcba63"/><path d="m56.222 18.722h6.278v6.278h-6.278z" fill="#4d3605"/><path d="m62.5 18.722h6.278v6.278h-6.278zm6.278 0h6.278v6.278h-6.278z" fill="#fcba63"/><path d="m74.944 18.722h6.278v6.278h-6.278z" fill="#fcba63"/><path d="m24.944 12.444h6.278v6.278h-6.278zm6.278 0h6.278v6.278h-6.278zm6.278 0h6.278v6.278h-6.278z" fill="#4d3605"/><path d="m43.778 12.444h6.278v6.278h-6.278z" fill="#fcba63"/><path d="m49.944 12.444h6.278v6.278h-6.278z" fill="#fcba63"/><path d="m56.222 12.444h6.278v6.278h-6.278z" fill="#4d3605"/><path d="m62.5 12.444h6.278v6.278h-6.278z" fill="#fcba63"/><path d="m24.944 6.278h6.278v6.278h-6.278zm6.278 0h6.278v6.278h-6.278zm6.278 0h6.278v6.278h-6.278zm6.278 0h6.278v6.278h-6.278z" fill="#be1e2d"/><path d="m49.944 6.278h6.278v6.278h-6.278zm6.278 0h6.278v6.278h-6.278zm6.278 0h6.278v6.278h-6.278zm6.278 0h6.278v6.278h-6.278z" fill="#be1e2d"/><path d="m74.944 6.278h6.278v6.278h-6.278zm-43.722-6.278h6.278v6.278h-6.278zm6.278 0h6.278v6.278h-6.278zm6.278 0h6.278v6.278h-6.278z" fill="#be1e2d"/><path d="m49.944 0h6.278v6.278h-6.278zm6.278 0h6.278v6.278h-6.278z" fill="#be1e2d"/></g></svg>