<svg height="734.608" viewBox="0 0 734.608 734.608" width="734.608" xmlns="http://www.w3.org/2000/svg" xmlns:xlink="http://www.w3.org/1999/xlink"><clipPath id="a"><path d="m0 0h734.608v734.608h-734.608z"/></clipPath><g clip-path="url(#a)"><path d="m0 734.608h734.608v-734.608h-734.608zm61.216-673.388h612.176v612.172h-612.176z" fill="#2a2a2a"/><path d="m61.216 673.392v-61.216h550.959v-550.956h61.217v612.172z" fill="#744e26"/><path d="m122.432 122.437h489.739v489.739h-489.739z" fill="#fbd800"/><g fill="#2a2a2a"><path d="m428.518 244.874h61.216v61.216h-61.216z"/><path d="m367.302 306.09h61.216v61.216h-61.216z"/><path d="m306.086 367.306h61.216v61.216h-61.216z"/><path d="m244.869 428.527h61.217v61.216h-61.217z"/><path d="m183.649 183.657h61.216v61.217h-61.216z"/><path d="m489.739 489.743h61.216v61.216h-61.216z"/></g><path d="m122.433 122.437h489.738v-61.217h-550.955v61.217 489.739h61.217z" fill="#fff"/></g></svg>