<svg height="1958.955" viewBox="0 0 1408 1958.955" width="1408" xmlns="http://www.w3.org/2000/svg" xmlns:xlink="http://www.w3.org/1999/xlink"><clipPath id="a"><path d="m0 0h1408v1958.955h-1408z"/></clipPath><g clip-path="url(#a)"><path d="m673.392 734.608h734.608v-734.608h-734.608zm61.216-673.388h612.176v612.172h-612.176z" fill="#2a2a2a"/><path d="m734.608 673.392v-61.216h550.959v-550.956h61.217v612.172z" fill="#744e26"/><path d="m795.824 122.437h489.739v489.739h-489.739z" fill="#fbd800"/><g fill="#2a2a2a"><path d="m1101.91 244.874h61.216v61.216h-61.216z"/><path d="m1040.694 306.09h61.216v61.216h-61.216z"/><path d="m979.478 367.306h61.216v61.216h-61.216z"/><path d="m918.261 428.527h61.217v61.216h-61.217z"/><path d="m857.041 183.657h61.216v61.217h-61.216z"/><path d="m1163.131 489.743h61.216v61.216h-61.216z"/></g><path d="m1163.131 1346.784v61.216h-61.217v244.869h61.217 61.216v-306.085z" fill="#744e26"/><path d="m550.955 1591.653h-122.437v61.216h-61.216v122.437h122.437v-61.216h61.216z" fill="#744e26"/><path d="m918.261 1408h-61.216v-61.216h61.216zm61.217 0h-61.217v61.216h61.217zm122.432 61.216v183.653h-122.432-122.437v61.217h-122.433-183.653v-183.649h122.437v-122.437h61.216v61.216h183.653v61.221h61.217v-61.221zm-306.086 61.221h-61.216v61.216h61.216zm-183.648-122.437h61.216v-61.216h-61.216z" fill="#4ec2c8"/><path d="m918.261 918.261v-61.216h-428.518v61.216h-61.221v367.302h122.437v-61.216h-61.216v-122.433h61.216v122.433h61.217v-122.433h122.432v-122.436h183.653v61.22h61.217v-122.437z" fill="#744e26"/><path d="m979.478 918.265h61.216v61.217h-61.216z" fill="#2a2a2a"/><path d="m612.171 1408h61.217v122.437h-183.649v-61.217h-122.437v-122.436h244.869zm367.307 61.22h-61.217v61.217h61.217zm-244.874 122.433h61.216v-61.216h-61.216zm244.874-612.171v61.216h61.216v122.433h-61.216v183.653h-61.221v61.216h122.437v-61.216h61.216v-61.217h61.216v-61.22-122.433-122.432zm-122.437 367.302h-183.653v61.216h61.216v61.22h183.653v-61.22h-61.216z" fill="#fbd800"/><path d="m1224.347 1285.563v-489.734h-61.216-734.609v61.216h-61.216v428.518h-183.653v61.221h-61.22v183.649h244.873v61.22h-122.437v61.216h-61.216v61.217h61.216v61.22h61.217v61.216h122.436v61.217h61.217v-61.217h61.216v-61.216h428.523v-61.22h306.085v-428.523zm0 367.306h-367.306v61.217h-367.302v61.22h-122.433v-122.437h61.216v-61.216h122.433v-61.22h-61.216v-61.217h-306.086v-61.216h61.216v-61.216h122.437 183.649v-61.221h-122.433v-183.649-183.653h61.217v-61.216h428.522v61.216h61.217v-61.216h183.653v428.518h-61.221v61.221h-61.216v61.216h-61.216v61.216h122.432v-61.216h61.221v-61.216h61.216z" fill="#2a2a2a"/><path d="m857.041 1101.914h-61.217v-61.216h61.217zm-673.388 612.172h-61.216v61.216h61.216zm183.653 244.869h61.216v-61.216h-61.216zm-183.653-61.216h61.216v-61.217h-61.216zm-183.653 0h61.216v-61.217h-61.216zm979.478-673.392v-61.216h-183.654v61.216h-61.216v122.437h122.433 122.437v-61.221h-122.437v-61.216z" fill="#2a2a2a"/><path d="m795.825 122.437h489.738v-61.217h-550.955v61.217 489.739h61.217z" fill="#fff"/><path d="m795.824 1040.698h122.436v-61.216h-122.436-61.216v122.432h61.216zm61.217 61.216h-61.217v61.217h244.872v-61.217h-.002v-61.216h-183.653zm-306.086 122.433h183.653v122.437h-183.653zm-61.216-122.433h61.216v122.433h-61.216zm122.437 0h183.648v122.433h-183.648zm244.865 122.433h122.437v61.216h-122.437z" fill="#fff" fill-rule="evenodd"/><path d="m244.869 1469.22h122.433v-122.436h-122.433v61.218h-61.216v61.218z" fill="#fff"/><path d="m1163.126 918.265h.005v-61.22h-183.653v61.22h61.218v61.217h122.43z" fill="#fff"/></g></svg>