<svg clip-rule="evenodd" fill-rule="evenodd" stroke-linejoin="round" stroke-miterlimit="2"
  viewBox="0 0 72 96" xmlns="http://www.w3.org/2000/svg">
  <g transform="matrix(-1 0 0 1 78 0)">
    <path d="m6 0h72v96h-72z" fill="none" />
    <g fill-rule="nonzero">
      <path d="m24 0h6v6h-6z" fill="#ff2500" />
      <path d="m30 0h6v6h-6z" fill="#ff2500" />
      <path d="m36 0h6v6h-6z" fill="#ff2500" />
      <path d="m42 0h6v6h-6z" fill="#ff2500" />
      <path d="m48 0h6v6h-6z" fill="#ff2500" />
      <path d="m18 6h6v6h-6z" fill="#ff2500" />
      <path d="m24 6h6v6h-6z" fill="#ff2500" />
      <path d="m30 6h6v6h-6z" fill="#ff2500" />
      <path d="m36 6h6v6h-6z" fill="#ff2500" />
      <path d="m42 6h6v6h-6z" fill="#ff2500" />
      <path d="m48 6h6v6h-6z" fill="#ff2500" />
      <path d="m54 6h6v6h-6z" fill="#ff2500" />
      <path d="m60 6h6v6h-6z" fill="#ff2500" />
      <path d="m66 6h6v6h-6z" fill="#ff2500" />
      <path d="m18 12h6v6h-6z" fill="#2b1100" />
      <path d="m24 12h6v6h-6z" fill="#2b1100" />
      <path d="m30 12h6v6h-6z" fill="#2b1100" />
      <path d="m36 12h6v6h-6z" fill="#ffb481" />
      <path d="m42 12h6v6h-6z" fill="#ffb481" />
      <path d="m48 12h6v6h-6z" fill="#2b1100" />
      <path d="m54 12h6v6h-6z" fill="#ffb481" />
      <path d="m12 18h6v6h-6z" fill="#2b1100" />
      <path d="m18 18h6v6h-6z" fill="#ffb481" />
      <path d="m24 18h6v6h-6z" fill="#2b1100" />
      <path d="m30 18h6v6h-6z" fill="#ffb481" />
      <path d="m36 18h6v6h-6z" fill="#ffb481" />
      <path d="m42 18h6v6h-6z" fill="#ffb481" />
      <path d="m48 18h6v6h-6z" fill="#2b1100" />
      <path d="m54 18h6v6h-6z" fill="#ffb481" />
      <path d="m60 18h6v6h-6z" fill="#ffb481" />
      <path d="m66 18h6v6h-6z" fill="#ffb481" />
      <path d="m12 24h6v6h-6z" fill="#2b1100" />
      <path d="m18 24h6v6h-6z" fill="#ffb481" />
      <path d="m24 24h6v6h-6z" fill="#2b1100" />
      <path d="m30 24h6v6h-6z" fill="#2b1100" />
      <path d="m36 24h6v6h-6z" fill="#ffb481" />
      <path d="m42 24h6v6h-6z" fill="#ffb481" />
      <path d="m48 24h6v6h-6z" fill="#ffb481" />
      <path d="m54 24h6v6h-6z" fill="#2b1100" />
      <path d="m60 24h6v6h-6z" fill="#ffb481" />
      <path d="m66 24h6v6h-6z" fill="#ffb481" />
      <path d="m72 24h6v6h-6z" fill="#ffb481" />
      <path d="m12 30h6v6h-6z" fill="#2b1100" />
      <path d="m18 30h6v6h-6z" fill="#2b1100" />
      <path d="m24 30h6v6h-6z" fill="#ffb481" />
      <path d="m30 30h6v6h-6z" fill="#ffb481" />
      <path d="m36 30h6v6h-6z" fill="#ffb481" />
      <path d="m42 30h6v6h-6z" fill="#ffb481" />
      <path d="m48 30h6v6h-6z" fill="#2b1100" />
      <path d="m54 30h6v6h-6z" fill="#2b1100" />
      <path d="m60 30h6v6h-6z" fill="#2b1100" />
      <path d="m66 30h6v6h-6z" fill="#2b1100" />
      <path d="m12 30h6v6h-6z" fill="#2b1100" />
      <path d="m18 30h6v6h-6z" fill="#2b1100" />
      <path d="m24 30h6v6h-6z" fill="#ffb481" />
      <path d="m30 30h6v6h-6z" fill="#ffb481" />
      <path d="m36 30h6v6h-6z" fill="#ffb481" />
      <path d="m42 30h6v6h-6z" fill="#ffb481" />
      <path d="m48 30h6v6h-6z" fill="#2b1100" />
      <path d="m54 30h6v6h-6z" fill="#2b1100" />
      <path d="m60 30h6v6h-6z" fill="#2b1100" />
      <path d="m66 30h6v6h-6z" fill="#2b1100" />
      <path d="m24 36h6v6h-6z" fill="#ffb481" />
      <path d="m30 36h6v6h-6z" fill="#ffb481" />
      <path d="m36 36h6v6h-6z" fill="#ffb481" />
      <path d="m42 36h6v6h-6z" fill="#ffb481" />
      <path d="m48 36h6v6h-6z" fill="#ffb481" />
      <path d="m54 36h6v6h-6z" fill="#ffb481" />
      <path d="m60 36h6v6h-6z" fill="#ffb481" />
      <path d="m18 42h6v6h-6z" fill="#0432ff" />
      <path d="m24 42h6v6h-6z" fill="#0432ff" />
      <path d="m30 42h6v6h-6z" fill="#ff2500" />
      <path d="m36 42h6v6h-6z" fill="#0432ff" />
      <path d="m42 42h6v6h-6z" fill="#0432ff" />
      <path d="m48 42h6v6h-6z" fill="#0432ff" />
      <path d="m12 48h6v6h-6z" fill="#0432ff" />
      <path d="m18 48h6v6h-6z" fill="#0432ff" />
      <path d="m24 48h6v6h-6z" fill="#0432ff" />
      <path d="m30 48h6v6h-6z" fill="#ff2500" />
      <path d="m36 48h6v6h-6z" fill="#0432ff" />
      <path d="m42 48h6v6h-6z" fill="#0432ff" />
      <path d="m48 48h6v6h-6z" fill="#ff2500" />
      <path d="m54 48h6v6h-6z" fill="#0432ff" />
      <path d="m60 48h6v6h-6z" fill="#0432ff" />
      <path d="m66 48h6v6h-6z" fill="#0432ff" />
      <path d="m6 54h6v6h-6z" fill="#0432ff" />
      <path d="m12 54h6v6h-6z" fill="#0432ff" />
      <path d="m18 54h6v6h-6z" fill="#0432ff" />
      <path d="m24 54h6v6h-6z" fill="#0432ff" />
      <path d="m30 54h6v6h-6z" fill="#ff2500" />
      <path d="m36 54h6v6h-6z" fill="#0432ff" />
      <path d="m42 54h6v6h-6z" fill="#0432ff" />
      <path d="m48 54h6v6h-6z" fill="#ff2500" />
      <path d="m54 54h6v6h-6z" fill="#0432ff" />
      <path d="m60 54h6v6h-6z" fill="#0432ff" />
      <path d="m66 54h6v6h-6z" fill="#0432ff" />
      <path d="m72 54h6v6h-6z" fill="#0432ff" />
      <path d="m6 60h6v6h-6z" fill="#ffb481" />
      <path d="m12 60h6v6h-6z" fill="#ffb481" />
      <path d="m18 60h6v6h-6z" fill="#0432ff" />
      <path d="m24 60h6v6h-6z" fill="#0432ff" />
      <path d="m30 60h6v6h-6z" fill="#ff2500" />
      <path d="m36 60h6v6h-6z" fill="#ff2500" />
      <path d="m42 60h6v6h-6z" fill="#ff2500" />
      <path d="m48 60h6v6h-6z" fill="#ff2500" />
      <path d="m54 60h6v6h-6z" fill="#0432ff" />
      <path d="m60 60h6v6h-6z" fill="#0432ff" />
      <path d="m66 60h6v6h-6z" fill="#ffb481" />
      <path d="m72 60h6v6h-6z" fill="#ffb481" />
      <path d="m6 66h6v6h-6z" fill="#ffb481" />
      <path d="m12 66h6v6h-6z" fill="#ffb481" />
      <path d="m18 66h6v6h-6z" fill="#ffb481" />
      <path d="m24 66h6v6h-6z" fill="#ff2500" />
      <path d="m30 66h6v6h-6z" fill="#fffb01" />
      <path d="m36 66h6v6h-6z" fill="#ff2500" />
      <path d="m42 66h6v6h-6z" fill="#ff2500" />
      <path d="m48 66h6v6h-6z" fill="#fffb01" />
      <path d="m54 66h6v6h-6z" fill="#ff2500" />
      <path d="m60 66h6v6h-6z" fill="#ffb481" />
      <path d="m66 66h6v6h-6z" fill="#ffb481" />
      <path d="m72 66h6v6h-6z" fill="#ffb481" />
      <path d="m6 72h6v6h-6z" fill="#ffb481" />
      <path d="m12 72h6v6h-6z" fill="#ffb481" />
      <path d="m18 72h6v6h-6z" fill="#ff2500" />
      <path d="m24 72h6v6h-6z" fill="#ff2500" />
      <path d="m30 72h6v6h-6z" fill="#ff2500" />
      <path d="m36 72h6v6h-6z" fill="#ff2500" />
      <path d="m42 72h6v6h-6z" fill="#ff2500" />
      <path d="m48 72h6v6h-6z" fill="#ff2500" />
      <path d="m54 72h6v6h-6z" fill="#ff2500" />
      <path d="m60 72h6v6h-6z" fill="#ff2500" />
      <path d="m66 72h6v6h-6z" fill="#ffb481" />
      <path d="m72 72h6v6h-6z" fill="#ffb481" />
      <path d="m18 78h6v6h-6z" fill="#ff2500" />
      <path d="m24 78h6v6h-6z" fill="#ff2500" />
      <path d="m30 78h6v6h-6z" fill="#ff2500" />
      <path d="m48 78h6v6h-6z" fill="#ff2500" />
      <path d="m54 78h6v6h-6z" fill="#ff2500" />
      <path d="m60 78h6v6h-6z" fill="#ff2500" />
      <path d="m12 84h6v6h-6z" fill="#2b1100" />
      <path d="m18 84h6v6h-6z" fill="#2b1100" />
      <path d="m24 84h6v6h-6z" fill="#2b1100" />
      <path d="m54 84h6v6h-6z" fill="#2b1100" />
      <path d="m60 84h6v6h-6z" fill="#2b1100" />
      <path d="m66 84h6v6h-6z" fill="#2b1100" />
      <path d="m6 90h6v6h-6z" fill="#2b1100" />
      <path d="m12 90h6v6h-6z" fill="#2b1100" />
      <path d="m18 90h6v6h-6z" fill="#2b1100" />
      <path d="m24 90h6v6h-6z" fill="#2b1100" />
      <path d="m54 90h6v6h-6z" fill="#2b1100" />
      <path d="m60 90h6v6h-6z" fill="#2b1100" />
      <path d="m66 90h6v6h-6z" fill="#2b1100" />
      <path d="m72 90h6v6h-6z" fill="#2b1100" />
    </g>
  </g>
</svg>